<?xml version="1.0" encoding="utf-8"?>
<!-- Generator: Adobe Illustrator 20.1.0, SVG Export Plug-In . SVG Version: 6.00 Build 0)  -->
<svg version="1.1" id="Ebene_1" xmlns="http://www.w3.org/2000/svg" xmlns:xlink="http://www.w3.org/1999/xlink" x="0px" y="0px"
	 viewBox="0 0 26 61.3" style="enable-background:new 0 0 26 61.3;" xml:space="preserve">
<style type="text/css">
	.st0{fill:#FFFFFF;}
</style>
<g>
	<path class="st0" d="M18.3,55.3c0.3,1.2-0.5,2.5-1.9,2.9c-1.4,0.4-2.8-0.3-3.2-1.5c-0.3-1.2,1.2-5.4,1.2-5.4S18,54,18.3,55.3z"/>
	<path class="st0" d="M14.3,23.7c1.1,3.9-1.6,8.1-6.1,9.4C5.1,34,2,33.3,0,31.6l0-15.1c0.9-3,1.8-5.4,1.8-5.4S13.2,19.8,14.3,23.7z"
		/>
	<path class="st0" d="M22.3,22.3c0.1,0.1,8.1,8.3,0.3,16.5c0.1,0.2,0.2,0.4,0.2,0.5c0.6,2.1-0.9,4.4-3.4,5.2
		c-0.9,0.3-1.8,0.3-2.6,0.1L0,61.3l0-1.4l15.7-15.7c-0.9-0.5-1.6-1.3-1.9-2.3c-0.6-2.1,2.1-9.6,2.1-9.6s4.2,3.2,6,5.6
		c6.9-7.4-0.1-14.6-0.4-14.9v0L0,1.4L0,0L22.3,22.3z"/>
</g>
</svg>
