<?xml version="1.0" encoding="utf-8"?>
<!-- Generator: Adobe Illustrator 20.1.0, SVG Export Plug-In . SVG Version: 6.00 Build 0)  -->
<svg version="1.1" id="Ebene_1" xmlns="http://www.w3.org/2000/svg" xmlns:xlink="http://www.w3.org/1999/xlink" x="0px" y="0px"
	 viewBox="0 0 26 61.3" style="enable-background:new 0 0 26 61.3;" xml:space="preserve">
<style type="text/css">
	.st0{fill:#FFFFFF;}
</style>
<g>
	<path class="st0" d="M0.6,11.6L0.6,11.6c-0.1-0.2,0.6-1.3,1.8-1.9c0,0,0,0,0,0c0.1,0,0.1-0.1,0.2-0.1c0.1,0,0.2-0.1,0.2-0.1
		c0.1,0,0.2,0,0.2-0.1c0.1,0,0.1,0,0.2,0c0,0,0,0,0,0c1.3-0.2,2.6,0.3,2.6,0.5l0,0L0.6,11.6z"/>
	<g>
		<path class="st0" d="M22.3,39l-1.5,1.5c1,3,2.3,7.7,2.2,9.8c-0.2,3.2-1.3,8.8-3.9,10.6c-3.2,0-7.3-4.2-9.1-6.5
			c-0.3-0.4-0.7-1.1-1.1-2L0,61.3l0-1.4l8.4-8.4c-1.6-3.7-3.1-8.9-3.1-8.9s-0.8-2.4,1.7-3.2l2.7-0.8c-1.1-3.4-2.3-7.3-2.3-7.3l0,0
			L3,17.5l-2.4-5.9c0-0.1,0.6-1.3,1.9-1.9c0,0,0,0,0,0c0.1,0,0.1-0.1,0.2-0.1c0.1,0,0.2-0.1,0.2-0.1c0.1,0,0.2,0,0.2-0.1
			c0.1,0,0.1,0,0.2,0c0,0,0,0,0,0c1.3-0.2,2.6,0.3,2.6,0.5l1.4,6.2l4.5,14.2c0.4,1.2,1.3,4.1,2.1,6.8l2.7-0.8c0,0,2.4-0.8,3.2,1.7
			c0,0,0.2,0.6,0.5,1.5l1.2-1.2c7.6-7.6,0.3-15,0-15.3v0L0,1.4L0,0l22.3,22.3C22.4,22.4,30.5,30.7,22.3,39z"/>
	</g>
</g>
</svg>
