<?xml version="1.0" encoding="utf-8"?>
<!-- Generator: Adobe Illustrator 20.1.0, SVG Export Plug-In . SVG Version: 6.00 Build 0)  -->
<svg version="1.1" id="Ebene_1" xmlns="http://www.w3.org/2000/svg" xmlns:xlink="http://www.w3.org/1999/xlink" x="0px" y="0px"
	 viewBox="0 0 26 66.8" style="enable-background:new 0 0 26 66.8;" xml:space="preserve">
<style type="text/css">
	.st0{fill:#FFFFFF;}
</style>
<g>
	<path class="st0" d="M0,22c1.5-0.4,3.1-0.7,4.8-0.7c9.1,0,16.7,6.8,18,15.6l0,0c5.5-7.1-0.9-13.6-1.2-13.9L0,1.4L0,0l22.3,22.3
		c0.1,0.1,7.8,8,0.6,16.1c0,0.4,0.1,0.8,0.1,1.2c0,3.1-0.8,6-2.2,8.6L19.4,48c1.5-2.5,2.3-5.4,2.3-8.5c0-0.5,0-0.9-0.1-1.3
		c-0.7-8.7-8-15.6-16.9-15.6c-1.7,0-3.3,0.2-4.8,0.7l0,0L0,22z"/>
	<path class="st0" d="M0,57.1L0,57.1c0.7,0.2,1.4,0.3,2,0.4c0.1,0,0.2,0,0.2,0L0,59.8l0,1.4l2.6-2.6c0,0.3-0.1,0.5-0.1,0.8
		c0.8-1.4,3.5-0.6,5.1-0.9c1.2-0.2,2.4-0.7,3.4-1.3c-0.1-0.5-0.1-1-0.1-1.5c-1.2-0.7-1.9-1.9-1.9-3.4c0-0.5,0.1-1.1,0.3-1.5
		c-3,0.3-4.9,2.3-6,5.5C2.1,56.3,1,56.1,0,55.8l0,0"/>
	<path class="st0" d="M12.2,59.6c0.8,0.7,1.6,1.1,2.5,1.1c0,0,0.1,0,0.1,0c0.6,0,1.1-0.2,1.5-0.4c0.6,0.1,1.4,0.1,2.2,0.1
		c-0.1,2-1.1,4.1-2.8,6.3c0.5-1.6-2-2.9-2.9-4.2c-0.9-1.3-1.5-2.9-1.6-4.3C11.4,58.7,11.7,59.2,12.2,59.6z"/>
	<path class="st0" d="M17.1,48.1c-0.9,0.2-1.7,0.5-2.4,0.9l-0.8-0.3c-0.4-0.1-0.8-0.2-1.3-0.2c-1.1,0-2,0.4-2.7,1.1
		c-0.1-0.2-0.2-0.4-0.3-0.6c-0.6-1.5-0.3-4.3-1.9-4.8C12.3,44,15.6,45.2,17.1,48.1z"/>
	<path class="st0" d="M17,40.2c0-7.9-6.4-14.3-14.3-14.3c0,0,0,0-0.1,0c1.1-0.3,2.4-0.5,3.6-0.5c6.8,0,12.4,5.5,12.4,12.4
		c0,2.9-1,5.6-2.7,7.7C16.7,43.8,17,42.1,17,40.2z"/>
	<circle class="st0" cx="18.8" cy="53.9" r="0.5"/>
	<path class="st0" d="M18.5,51.7c0.9,0,1.6,0.7,1.6,1.6c0,0,0,0.1,0,0.1c-0.1-0.5-0.6-0.9-1.2-0.9c-0.7,0-1.3,0.6-1.3,1.3
		c0,0.5,0.3,0.9,0.6,1.1c-0.7-0.1-1.3-0.8-1.3-1.5C16.9,52.4,17.6,51.7,18.5,51.7z"/>
	<path class="st0" d="M21.9,52.5c0,1.3-0.8,2.3-2,2.6c0.6-0.4,0.9-1.1,0.9-1.9c0-1.3-1.1-2.4-2.4-2.4c-0.7,0-1.3,0.3-1.8,0.8
		c0.4-1,1.4-1.8,2.6-1.8C20.7,49.8,21.9,51,21.9,52.5z"/>
	<path class="st0" d="M14.9,54.6c0,1.6,0.6,3.1,1.7,4.2c-2.2-0.7-3.8-2.6-3.8-4.8c0-2.8,2.4-5.1,5.4-5.1c0.1,0,0.2,0,0.4,0
		C16.5,49.9,14.9,52.1,14.9,54.6z"/>
	<path class="st0" d="M12.7,49.4c0.3,0,0.7,0.1,1,0.2c-1,0.9-1.7,2.4-1.7,4.1c0,0.6,0.1,1.2,0.2,1.7c-1.4-0.2-2.5-1.5-2.5-3
		C9.7,50.8,11,49.4,12.7,49.4z"/>
	<path class="st0" d="M17.9,58.8c0,0-1.2-1-1.5-2.5c-0.5-1.5-0.3-3.5-0.3-3.4c0.4,1.6,1.6,3,3.5,3c1.3,0,2.5-0.7,3.1-1.7
		c-0.1,1.2-0.8,2.7-1.9,3.6C18.3,59,17.9,58.8,17.9,58.8z"/>
	<path class="st0" d="M18.7,59.4c0,0,2.3-0.9,3.4-1.8c1.1-0.9,1.2-3.1,1.2-3.1s0.9,1.4,0.9,2.2c0,0.8-0.4,2.3-1.6,2.8
		C21.3,59.9,18.7,59.4,18.7,59.4z"/>
	<path class="st0" d="M12.2,55.8c0.1,0.3,0.2,0.5,0.3,0.7c0-0.1,0-0.2,0-0.2l0,0c0.2,0.4,0.4,0.8,0.7,1.2c1.3,1.3,3.1,1.7,3.1,1.7
		s-1.4,1.1-3.3,0C11.2,58.2,12.1,56.5,12.2,55.8z"/>
	<path class="st0" d="M23.1,53.1c-0.1,0.2-0.4,0.5-0.6,0.6c0.2-1.1,0.3-2.5-0.9-3.7c-0.5-0.5-1.4-0.8-2.6-0.8
		c0.9-0.4,1.9-0.7,3.2,0.2C23.5,50.4,23.8,52.1,23.1,53.1z"/>
</g>
</svg>
