<?xml version="1.0" encoding="utf-8"?>
<!-- Generator: Adobe Illustrator 20.1.0, SVG Export Plug-In . SVG Version: 6.00 Build 0)  -->
<svg version="1.1" id="Ebene_1" xmlns="http://www.w3.org/2000/svg" xmlns:xlink="http://www.w3.org/1999/xlink" x="0px" y="0px"
	 viewBox="0 0 26 66.8" style="enable-background:new 0 0 26 66.8;" xml:space="preserve">
<style type="text/css">
	.st0{fill:#FFFFFF;}
</style>
<g>
	<path class="st0" d="M26,22c-1.5-0.4-3.1-0.7-4.8-0.7c-9.1,0-16.7,6.8-18,15.6l0,0C-2.3,29.9,4.1,23.3,4.4,23L26,1.4V0L3.7,22.3
		c-0.1,0.1-7.8,8-0.6,16.1C3,38.7,3,39.1,3,39.5c0,3.1,0.8,6,2.2,8.6L6.6,48c-1.5-2.5-2.3-5.4-2.3-8.5c0-0.5,0-0.9,0.1-1.3
		c0.7-8.7,8-15.6,16.9-15.6c1.7,0,3.3,0.2,4.8,0.7l0,0L26,22z"/>
	<path class="st0" d="M26,57.1L26,57.1c-0.7,0.2-1.4,0.3-2,0.4c-0.1,0-0.2,0-0.2,0l2.3,2.3v1.4l-2.6-2.6c0,0.3,0.1,0.5,0.1,0.8
		c-0.8-1.4-3.5-0.6-5.1-0.9c-1.2-0.2-2.4-0.7-3.4-1.3c0.1-0.5,0.1-1,0.1-1.5c1.2-0.7,1.9-1.9,1.9-3.4c0-0.5-0.1-1.1-0.3-1.5
		c3,0.3,4.9,2.3,6,5.5c1.1-0.1,2.1-0.3,3.1-0.6l0,0"/>
	<path class="st0" d="M13.8,59.6c-0.8,0.7-1.6,1.1-2.5,1.1c0,0-0.1,0-0.1,0c-0.6,0-1.1-0.2-1.5-0.4c-0.6,0.1-1.4,0.1-2.2,0.1
		c0.1,2,1.1,4.1,2.8,6.3c-0.5-1.6,2-2.9,2.9-4.2c0.9-1.3,1.5-2.9,1.6-4.3C14.5,58.7,14.2,59.2,13.8,59.6z"/>
	<path class="st0" d="M8.9,48.1c0.9,0.2,1.7,0.5,2.4,0.9l0.8-0.3c0.4-0.1,0.8-0.2,1.3-0.2c1.1,0,2,0.4,2.7,1.1
		c0.1-0.2,0.2-0.4,0.3-0.6c0.6-1.5,0.3-4.3,1.9-4.8C13.7,44,10.3,45.2,8.9,48.1z"/>
	<path class="st0" d="M8.9,40.2c0-7.9,6.4-14.3,14.3-14.3c0,0,0,0,0.1,0c-1.1-0.3-2.4-0.5-3.6-0.5c-6.8,0-12.4,5.5-12.4,12.4
		c0,2.9,1,5.6,2.7,7.7C9.3,43.8,8.9,42.1,8.9,40.2z"/>
	<circle class="st0" cx="7.1" cy="53.9" r="0.5"/>
	<path class="st0" d="M7.5,51.7c-0.9,0-1.6,0.7-1.6,1.6c0,0,0,0.1,0,0.1c0.1-0.5,0.6-0.9,1.2-0.9c0.7,0,1.3,0.6,1.3,1.3
		c0,0.5-0.3,0.9-0.6,1.1C8.5,54.7,9,54,9,53.3C9,52.4,8.3,51.7,7.5,51.7z"/>
	<path class="st0" d="M4,52.5c0,1.3,0.8,2.3,2,2.6c-0.6-0.4-0.9-1.1-0.9-1.9c0-1.3,1.1-2.4,2.4-2.4c0.7,0,1.3,0.3,1.8,0.8
		c-0.4-1-1.4-1.8-2.6-1.8C5.2,49.8,4,51,4,52.5z"/>
	<path class="st0" d="M11,54.6c0,1.6-0.6,3.1-1.7,4.2c2.2-0.7,3.8-2.6,3.8-4.8c0-2.8-2.4-5.1-5.4-5.1c-0.1,0-0.2,0-0.4,0
		C9.5,49.9,11,52.1,11,54.6z"/>
	<path class="st0" d="M13.3,49.4c-0.3,0-0.7,0.1-1,0.2c1,0.9,1.7,2.4,1.7,4.1c0,0.6-0.1,1.2-0.2,1.7c1.4-0.2,2.5-1.5,2.5-3
		C16.3,50.8,14.9,49.4,13.3,49.4z"/>
	<path class="st0" d="M8.1,58.8c0,0,1.2-1,1.5-2.5c0.5-1.5,0.3-3.5,0.3-3.4c-0.4,1.6-1.6,3-3.5,3c-1.3,0-2.5-0.7-3.1-1.7
		c0.1,1.2,0.8,2.7,1.9,3.6C7.6,59,8.1,58.8,8.1,58.8z"/>
	<path class="st0" d="M7.3,59.4c0,0-2.3-0.9-3.4-1.8c-1.1-0.9-1.2-3.1-1.2-3.1s-0.9,1.4-0.9,2.2c0,0.8,0.4,2.3,1.6,2.8
		C4.6,59.9,7.3,59.4,7.3,59.4z"/>
	<path class="st0" d="M13.8,55.8c-0.1,0.3-0.2,0.5-0.3,0.7c0-0.1,0-0.2,0-0.2l0,0c-0.2,0.4-0.4,0.8-0.7,1.2
		c-1.3,1.3-3.1,1.7-3.1,1.7s1.4,1.1,3.3,0C14.8,58.2,13.9,56.5,13.8,55.8z"/>
	<path class="st0" d="M2.9,53.1c0.1,0.2,0.4,0.5,0.6,0.6c-0.2-1.1-0.3-2.5,0.9-3.7c0.5-0.5,1.4-0.8,2.6-0.8
		c-0.9-0.4-1.9-0.7-3.2,0.2C2.5,50.4,2.2,52.1,2.9,53.1z"/>
</g>
</svg>
