<?xml version="1.0" encoding="utf-8"?>
<!-- Generator: Adobe Illustrator 20.1.0, SVG Export Plug-In . SVG Version: 6.00 Build 0)  -->
<svg version="1.1" id="Ebene_1" xmlns="http://www.w3.org/2000/svg" xmlns:xlink="http://www.w3.org/1999/xlink" x="0px" y="0px"
	 viewBox="0 0 7.6 7.6" style="enable-background:new 0 0 7.6 7.6;" xml:space="preserve">
<style type="text/css">
	.st0{fill:#B81C22;}
	.st1{fill:#FFFFFF;}
</style>
<g>
	<path class="st0" d="M2,0c0,0-2,0-2,2v5.6h5.6c0,0,2,0,2-2V0H2z"/>
</g>
<g>
	<path class="st1" d="M1.8,6.5C1.8,6.5,1.8,6.5,1.8,6.5l0.8,0.1c0,0,0.1,0,0.1-0.1V2.7h0l2.2,3.7C4.9,6.5,5,6.5,5,6.5h0.7
		c0,0,0.1,0,0.1-0.1V1.2c0,0,0-0.1-0.1-0.1H5.1c0,0-0.1,0-0.1,0.1v3.8h0L2.7,1.2c0-0.1-0.1-0.1-0.1-0.1H1.9c0,0-0.1,0-0.1,0.1V6.5z"
		/>
</g>
</svg>
