<?xml version="1.0" encoding="utf-8"?>
<!-- Generator: Adobe Illustrator 20.1.0, SVG Export Plug-In . SVG Version: 6.00 Build 0)  -->
<svg version="1.1" id="Ebene_1" xmlns="http://www.w3.org/2000/svg" xmlns:xlink="http://www.w3.org/1999/xlink" x="0px" y="0px"
	 viewBox="0 0 28.3 89" style="enable-background:new 0 0 28.3 89;" xml:space="preserve">
<style type="text/css">
	.st0{fill:#FFFFFF;}
</style>
<g>
	<path class="st0" d="M0,64.6l0,3.9c0.3,0.3,0.6,0.7,0.9,1c0.4,0.5,0.7,1.2,1.3,1.5c1.1,0.3,2.2,0.6,3.3,0.8
		c0.5,0.2,1.1,0.3,1.6,0.5c0.5,0.1,3.7-0.9,3.8-1.1c0.1-0.3-0.1-0.9-0.2-1.2c0.3,0.3,0.5,0.8,0.8,1c0.9,0.3,1.8-1.1,2.3-1.5
		c0.6-0.5,1.2-1.1,1.8-1.6c0.1-0.4,0.1-0.7,0.2-1.1c0.7-1.8,1.4-2.7,0.8-5.1c-0.2-0.9-0.2-2.8-1-3.1c0.1-0.2,0.1-0.2,0.2-0.5
		c-1.2-1.2-2.4-2.9-3.9-3.8c-0.6-0.3-1.3-0.3-2.1-0.5c-0.7-0.2-1.4-0.3-2.1-0.4L11,50c0,0.1,0.1,0.2,0.1,0.3c0.1,0.3,0.1,0.7,0.2,1
		c0.5,0.5,1,1,1.6,1.5c0.4,0.4,1.2,1.6,2,1.4c0.3-0.2,0.5-0.6,0.8-0.8c-0.1,0.3-0.2,0.8-0.1,1.1c0.1,0.2,2.9,1,3.3,0.9
		c0.5-0.1,0.9-0.3,1.4-0.4c1-0.3,1.9-0.5,2.9-0.8c0.5-0.3,0.8-0.9,1.2-1.3c0.4-0.5,0.8-0.9,1.3-1.4c0.3-1.1,0.7-2.1,1-3.2
		c0.1-0.5,0.2-0.9,0.2-1.4c0-1.2-1.1-4.6-1.7-5.3c-1.1,0-1.9,0.9-2.7,1.3c0.5-0.8,1.2-1.4,1.8-2.1v-0.2c-0.3-0.5-0.9-0.7-1.5-1
		c-0.3-0.2-0.6-0.3-0.9-0.5l0.1-0.1c4.3-4.3,4.1-8.7,3.1-11.5c-1-3.1-3-5.1-3.1-5.2L0,0l0,1.4l21.4,21.4h0c0.3,0.3,7.6,7.8,0,15.3
		L0,59.6L0,61l1.1-1.1c-1.1,3.4,0,7.1,2.7,8.7c0.8,0.5,2.2,0.7,3.1,0.8c1,0.2,1.6-0.3,2.3-0.4c0,0.5,0.1,0.8,0,1.3
		c-1.1,0.9-2.7,0.5-3.9,0.1c-0.8-0.2-1.7-0.4-2.5-0.6c-0.4-0.2-2.2-2.5-2.4-3C0.2,66.2,0.1,65.4,0,64.6z M1.9,63
		c0-1.6,0.2-3,1.1-3.8c0.2,0.1,0.4,0.2,0.5,0.3c0,0.6-0.7,1.6-0.9,2.5c-0.7,3.8,3,5.6,6.3,5.1c0,0.2,0.1,0.3,0.1,0.5
		c-3.3,1.1-5.8-0.7-6.8-3.2C2.1,64,2,63.5,1.9,63z M6.1,57.3c2.8-0.5,5.2,0.7,6,2.7c-0.2,0.1-0.3,0.2-0.5,0.4
		c-2.3-2.6-3.4-3.3-7.1-1.8c-0.1-0.1-0.2-0.2-0.4-0.4C4.5,57.7,5.4,57.4,6.1,57.3z M2.9,58.1L2.9,58.1C2.9,58.1,2.9,58.1,2.9,58.1
		C2.9,58.1,2.9,58.1,2.9,58.1z M19.7,42c0.7,0.1,1.4,0.3,1.7,0.8c-0.1,0.1-0.2,0.2-0.3,0.3c-1.1-0.5-1.8-0.7-2.5-0.7l0.6-0.6
		C19.3,41.9,19.5,42,19.7,42z M22.1,41.7c-0.5-0.3-1.1-0.6-1.6-0.9c-0.1,0-0.2,0-0.2-0.1l0.8-0.8c0.6,0.2,1.4,0.4,1.6,0.9
		C22.5,41.1,22.3,41.4,22.1,41.7z M23.5,47.1c-0.1,0.4-0.2,0.8-0.3,1.3c-0.9,2.2-3.1,3.8-6,2.8c0-0.1,0.1-0.3,0.1-0.4
		c2.9,0.4,6.2-1.1,5.6-4.5c-0.1-0.8-0.8-1.7-0.8-2.2c0.2-0.1,0.3-0.2,0.5-0.3C23.3,44.4,23.5,45.7,23.5,47.1z M16.9,52.5
		c0.7,0.1,1.2,0.5,2.1,0.4c0.9-0.1,2.1-0.3,2.8-0.8c2.7-1.7,3.7-5.7,1.9-9c0.3-0.1,0.6-0.3,0.8-0.4h0c0.4,1.3,0.8,2.5,1.2,3.8
		c-0.6,1.1-0.5,2.8-1,4c-0.2,0.4-1.7,2.4-2.1,2.6c-0.7,0.2-1.5,0.4-2.2,0.6c-1.1,0.3-2.5,0.7-3.4-0.1C16.8,53.2,16.9,52.9,16.9,52.5
		z M16.8,49.2c-1-0.5-1.7-2.7-1-4L17,44c0.9-0.5,2.1-0.5,3.3,0c0,0-0.1,0.1-0.1,0.1c-0.1,0.1-0.2,0.2-0.3,0.3
		c-3-1.5-5.1,2.5-2.9,4.1c1.5,1.2,3.9,0.1,4.2-1.5c0.2-0.9-0.4-1.4-0.6-2c0.1-0.1,0.3-0.2,0.4-0.3c0,0,0.1,0.1,0.1,0.1
		c0.2,0.6,0.5,1.1,0.5,2c-0.7,1.8-1.4,3.5-4.2,2.7c0-0.3-0.1-0.3-0.2-0.5C17,49.2,17,49.3,16.8,49.2z M17.4,47.4
		c-0.7-1.1,0.6-2.3,1.7-2c0,0.3,0,0.4,0.1,0.6c0.2,0,0.5,0,0.6,0c0.2,0.2,0.2,0.5,0.2,0.8C19.5,47.7,18.2,48.6,17.4,47.4z
		 M13.8,47.2l0.7-0.7c0,1.2,0.1,2.1,0.8,3c0.3,0.4,1.1,0.6,1.3,1.1c0,0.1-0.1,0.2-0.1,0.2h-0.2C14.9,49.8,13.9,48.8,13.8,47.2z
		 M11.8,49.2l1-1c0.2,0.9,0.6,1.8,1,2.4c0.4,0.6,1.3,0.8,1.7,1.3c-0.3,0.3-0.6,0.6-0.8,0.9L14,52.1C13,51.6,12.3,50.4,11.8,49.2z
		 M14.3,58.1c-0.2,0.2-0.5,0.5-0.7,0.7c-0.1,0.1-0.3,0.2-0.4,0.4C12,56.9,9,54.7,5.3,56c-0.2,0.1-0.4,0.2-0.6,0.3l1.7-1.7
		c1.8-0.2,4.1,0.2,5.4,1.2c0.8,0.7,1.6,1.5,2.4,2.2V58.1z M10.9,68.4c0.5-0.6,1.4-0.8,1.9-1.5c1-1.3,1.9-4.3,1-6.4
		c0.3-0.2,0.6-0.3,1-0.5c0.2,0.1,0.1,0.1,0.3,0.1c0.2,1,0.7,2.5,0.4,3.8c-0.3,1.7-1.4,4.1-2.9,4.8c-0.3,0.3-0.5,0.5-0.8,0.8
		C11.5,69,11.2,68.7,10.9,68.4z M9.8,66.9c0.2-0.5,1.1-0.8,1.4-1.2c0.9-1.2,0.9-2.6,0.8-4.5c0.2-0.1,0.4-0.1,0.5-0.2
		c0.9,3.2-0.5,4.6-2.4,6.2H10C9.9,67.1,9.9,67,9.8,66.9z M9.5,65.3c-0.2,0.1-0.3,0-0.7,0c-0.2,0.2-0.2,0.2-0.3,0.5
		c-3.1,0.8-3.8-1.1-4.7-3.1c0-1,0.3-1.5,0.6-2.2c0.1,0,0.1-0.1,0.2-0.1c0.2,0.1,0.3,0.2,0.5,0.4c-0.2,0.6-0.8,1.2-0.6,2.2
		c0.4,1.8,3.1,3,4.8,1.6c2.5-1.9,0.1-6.3-3.2-4.7c-0.1-0.1-0.2-0.2-0.3-0.4l-0.1-0.1c1.9-0.8,3.8-0.5,4.9,1.2
		C11.4,62.1,10.7,64.8,9.5,65.3z M6,61.8c0.1-0.1,0.4,0,0.7-0.1c0.1-0.2,0.2-0.3,0.2-0.6c1.3-0.3,2.7,1,1.9,2.3
		c-0.9,1.4-2.4,0.3-3-0.6C5.8,62.3,5.8,62,6,61.8z"/>
	<path class="st0" d="M28.3,75.2C28.3,75.2,28.3,75.2,28.3,75.2l0-6.4c0,0,0,0,0,0c0,0,0,0-0.1,0.1c-0.2,0.1-0.3,0-0.7,0
		c-0.2,0.2-0.2,0.2-0.3,0.5c-3.1,0.8-3.8-1.1-4.7-3.1c0-1,0.3-1.5,0.6-2.2c0.1,0,0.1-0.1,0.2-0.1c0.2,0.1,0.3,0.2,0.5,0.4
		c-0.2,0.6-0.8,1.2-0.6,2.2c0.4,1.8,3.1,3,4.8,1.6c0.1-0.1,0.2-0.2,0.3-0.3c0,0,0,0,0,0l0-3.7c0,0,0,0,0,0c-0.8-0.9-2.1-1.4-3.6-0.7
		c-0.1-0.1-0.2-0.2-0.3-0.4L24.3,63c1.5-0.6,2.9-0.6,4,0.2c0,0,0,0,0,0v-1.4c0,0,0,0,0,0c-1.2-0.8-2.5-0.7-4.9,0.3
		c-0.1-0.1-0.2-0.2-0.4-0.4c0.3-0.6,1.1-0.8,1.9-1c1.2-0.2,2.4-0.1,3.4,0.3c0,0,0,0,0,0v-1.6c0,0,0,0,0,0c-1.2-0.5-2.7-0.6-4.3,0
		c-0.6,0.3-1.2,0.7-1.8,1c-0.2-0.3-0.4-0.7-0.6-1c0.3-0.7,1.6-0.9,2.4-1.2c1.2-0.4,2.8-0.4,4.3-0.1c0,0,0,0,0,0l0-1.2c0,0,0,0,0,0
		c-2.8-0.7-4.8-0.4-7,0.9c-0.6,0.4-1.3,0.5-1.6,1.1v0.3c0.6,0.8,1.4,1.4,2,2.3c-0.9-0.5-1.8-1.5-3-1.5c-0.6,0.8-1.9,4.6-1.9,6
		c0.1,0.5,0.2,1.1,0.3,1.6c0.4,1.2,0.7,2.4,1.1,3.6c0.5,0.5,1,1.1,1.4,1.6c0.4,0.5,0.7,1.2,1.3,1.5c1.1,0.3,2.2,0.6,3.3,0.8
		c0.5,0.2,1.1,0.3,1.6,0.5C26.2,75.8,27.4,75.5,28.3,75.2z M24.8,65.3c0.1-0.1,0.4,0,0.7-0.1c0.1-0.2,0.2-0.3,0.2-0.6
		c1.3-0.3,2.7,1,1.9,2.3c-0.9,1.4-2.4,0.3-3-0.6C24.6,65.8,24.6,65.5,24.8,65.3z M27.8,71.1c-3.3,1.1-5.8-0.7-6.8-3.2
		c-0.1-0.5-0.2-1-0.3-1.4c0-1.6,0.2-3,1.1-3.8c0.2,0.1,0.4,0.2,0.5,0.3c0,0.6-0.7,1.6-0.9,2.5c-0.7,3.8,3,5.6,6.3,5.1
		C27.7,70.8,27.8,70.9,27.8,71.1z M24.2,73.9c-0.8-0.2-1.7-0.4-2.5-0.6c-0.4-0.2-2.2-2.5-2.4-3c-0.6-1.3-0.4-3.3-1.2-4.5
		c0.4-1.4,0.9-2.8,1.3-4.2h0.1c0.3,0.1,0.6,0.3,1,0.4c-2,3.8-1,8.2,2.1,10.1c0.8,0.5,2.2,0.7,3.1,0.8c1,0.2,1.6-0.3,2.3-0.4
		c0,0.5,0.1,0.8,0,1.3C27,74.7,25.4,74.3,24.2,73.9z"/>
	<path class="st0" d="M4.8,79.4C4.3,81.6,5,82.3,5.6,84c0.1,0.3,0.1,0.7,0.2,1c0.5,0.5,1,1,1.6,1.5c0.4,0.4,1.2,1.6,2,1.4
		c0.3-0.2,0.5-0.6,0.8-0.8C10,87.2,9.9,87.8,10,88c0.1,0.2,2.9,1,3.3,0.9c0.5-0.1,0.9-0.3,1.4-0.4c1-0.3,2-0.5,2.9-0.8
		c0.5-0.3,0.8-0.9,1.2-1.3c0.4-0.5,0.8-0.9,1.3-1.4c0.3-1.1,0.7-2.1,1-3.2c0.1-0.5,0.2-0.9,0.2-1.4c0-1.2-1.1-4.6-1.7-5.3
		c-1.1,0-1.9,0.9-2.7,1.3c0.5-0.8,1.2-1.4,1.8-2.1v-0.2c-0.3-0.5-0.9-0.7-1.5-1c-2-1.2-3.8-1.4-6.5-0.8c-0.6,0.2-1.3,0.2-1.8,0.5
		c-1.4,0.8-2.4,2.2-3.5,3.3c0,0.3,0.1,0.3,0.1,0.5C5,77,5,78.6,4.8,79.4z M16.5,75.4c-0.5-0.3-1.1-0.6-1.6-0.9c-3.3-1.1-6,0.9-7,2.8
		c-0.1-0.1-0.3-0.2-0.4-0.3c-0.2-0.2-0.4-0.4-0.6-0.6v-0.1c0.7-0.7,1.4-1.3,2.2-2c1.5-1.1,4.2-1.4,5.9-0.8c0.7,0.2,1.9,0.4,2.1,1
		C16.9,74.8,16.7,75.1,16.5,75.4z M14.2,75.7c0.7,0.1,1.4,0.3,1.7,0.8c-0.1,0.1-0.2,0.2-0.3,0.3c-3.3-1.4-4.2-0.7-6.3,1.6
		c-0.1-0.1-0.3-0.2-0.4-0.3C9.5,76.3,11.7,75.2,14.2,75.7z M17.9,80.8c-0.1,0.4-0.2,0.8-0.3,1.3c-0.9,2.2-3.1,3.8-6,2.8
		c0-0.1,0.1-0.3,0.1-0.4c2.9,0.4,6.2-1.1,5.6-4.5c-0.1-0.8-0.8-1.7-0.8-2.2c0.2-0.1,0.3-0.2,0.5-0.3C17.7,78.1,17.9,79.3,17.9,80.8z
		 M11.4,86.1c0.7,0.1,1.2,0.5,2.1,0.4c0.9-0.1,2.1-0.3,2.8-0.8c2.7-1.7,3.7-5.7,1.9-9c0.3-0.1,0.6-0.3,0.8-0.4h0
		c0.4,1.3,0.8,2.5,1.2,3.8c-0.6,1.1-0.5,2.8-1,4c-0.2,0.4-1.7,2.4-2.1,2.6c-0.7,0.2-1.5,0.4-2.2,0.6c-1.1,0.3-2.5,0.7-3.4-0.1
		C11.3,86.9,11.3,86.6,11.4,86.1z M11.2,82.8c-1.1-0.5-1.7-2.9-0.9-4.1c1-1.5,2.7-1.8,4.4-1c0,0-0.1,0.1-0.1,0.1
		c-0.1,0.1-0.2,0.2-0.3,0.3c-3-1.5-5.1,2.5-2.9,4.1c1.5,1.2,3.9,0.1,4.2-1.5c0.2-0.9-0.4-1.4-0.6-2c0.1-0.1,0.3-0.2,0.4-0.3
		c0,0,0.1,0.1,0.1,0.1c0.2,0.6,0.5,1.1,0.5,2c-0.7,1.8-1.4,3.5-4.2,2.7c0-0.3-0.1-0.3-0.2-0.5C11.5,82.9,11.4,83,11.2,82.8z
		 M11.8,81.1c-0.7-1.1,0.6-2.3,1.7-2c0,0.3,0,0.4,0.1,0.6c0.2,0,0.5,0,0.6,0c0.2,0.2,0.2,0.5,0.2,0.8C14,81.4,12.6,82.3,11.8,81.1z
		 M8.5,79c0.2,0.1,0.3,0.1,0.5,0.2c-0.1,1.7-0.1,2.9,0.7,4c0.3,0.4,1.1,0.6,1.3,1.1c0,0.1-0.1,0.2-0.1,0.2h-0.2
		C8.9,83.1,7.7,81.9,8.5,79z M6.2,78.1c0.2,0,0.1,0,0.3,0c0.3,0.1,0.6,0.3,0.8,0.4c-0.8,1.8,0,4.5,0.9,5.7c0.4,0.6,1.3,0.8,1.7,1.3
		c-0.3,0.3-0.6,0.6-0.8,0.9l-0.7-0.7c-1.3-0.6-2.3-2.7-2.5-4.2C5.6,80.4,6,79,6.2,78.1z"/>
</g>
</svg>
