<?xml version="1.0" encoding="utf-8"?>
<!-- Generator: Adobe Illustrator 20.1.0, SVG Export Plug-In . SVG Version: 6.00 Build 0)  -->
<svg version="1.1" id="Ebene_1" xmlns="http://www.w3.org/2000/svg" xmlns:xlink="http://www.w3.org/1999/xlink" x="0px" y="0px"
	 viewBox="0 0 26 61.3" style="enable-background:new 0 0 26 61.3;" xml:space="preserve">
<style type="text/css">
	.st0{fill:#FFFFFF;}
</style>
<g>
	<path class="st0" d="M6.1,17.6c7.1,0,12.9,5.8,12.9,12.9S13.2,43.3,6.1,43.3c-2.2,0-4.3-0.6-6.1-1.6l0-8.3c1.1,2.3,3.4,3.8,6.1,3.8
		c3.8,0,6.9-3.1,6.9-6.9c0-0.7-0.1-1.5-0.3-2.1c-0.6,1.3-1.8,2.1-3.3,2.1c-2,0-3.6-1.6-3.6-3.6c0-1.3,0.7-2.4,1.7-3.1
		c-0.4-0.1-0.8-0.1-1.3-0.1c-2.7,0-5,1.6-6.1,3.8l0-8.3C1.8,18.1,3.9,17.6,6.1,17.6z"/>
	<path class="st0" d="M25.4,27.5c1,2.9,1.2,7.2-3.1,11.5L0,61.3l0,0l0-1.4l0,0l21.5-21.5c7.6-7.6,0.3-15,0-15.3h0L0,1.4l0,0L0,0l0,0
		l22.3,22.3C22.4,22.4,24.4,24.4,25.4,27.5z"/>
</g>
</svg>
