<?xml version="1.0" encoding="utf-8"?>
<!-- Generator: Adobe Illustrator 20.1.0, SVG Export Plug-In . SVG Version: 6.00 Build 0)  -->
<svg version="1.1" id="Ebene_1" xmlns="http://www.w3.org/2000/svg" xmlns:xlink="http://www.w3.org/1999/xlink" x="0px" y="0px"
	 viewBox="0 0 26.3 62" style="enable-background:new 0 0 26.3 62;" xml:space="preserve">
<style type="text/css">
	.st0{fill:#FFFFFF;}
</style>
<g>
	<path class="st0" d="M22.6,39.4L0,62l0-1.4l21.9-21.9c7.6-7.6,0.3-15,0-15.3v0L0,1.4L0,0l22.6,22.6C22.7,22.7,30.9,31.1,22.6,39.4z
		"/>
	<path class="st0" d="M22.6,54.7l-1.1,4.4c-0.5,0.1-1.1,0-1.6-0.2l1.1-4.6C21.7,54.4,22.2,54.6,22.6,54.7z"/>
	<path class="st0" d="M24.3,56.6c0.1,1.1-0.9,2-2.1,2.4l1-4C23.9,55.4,24.3,56,24.3,56.6z"/>
	<path class="st0" d="M13.5,54.2c-0.2,0.6,0.5,1.5,1.6,1.7c0.6,0.2,1.3,0.1,1.7-0.2c0.2,0.3,0.4,0.7,0.7,1.2l0.6-2.3
		c-0.3,0.1-0.5,0.2-0.8,0.2c0.1-0.5-0.1-0.9-0.4-1.1l0.2-0.9L16.8,52c0-0.1-0.1-0.2-0.2-0.1c-0.1,0-0.2,0.1-0.1,0.2l0.3,0.8
		l-0.1,0.3l-0.2-0.5l-1.4-0.3c-0.1,0-0.2,0-0.2,0.1c0,0.1,0,0.2,0.1,0.2l1.2,0.3l0.2,0.5c-0.2-0.1-0.5-0.1-0.7-0.1
		C14.6,53.4,13.6,53.9,13.5,54.2z M15.3,54.2c0.1-0.3,0.4-0.6,0.8-0.5c0.3,0.1,0.6,0.4,0.5,0.8c-0.1,0.3-0.4,0.6-0.8,0.5
		C15.4,54.9,15.2,54.5,15.3,54.2z"/>
	<path class="st0" d="M18.8,54.5c0.5-0.1,1.1-0.2,1.7-0.1l-1.1,4.3c-0.5-0.3-0.9-0.7-1.3-1.1l0.7-3C18.8,54.6,18.8,54.5,18.8,54.5z"
		/>
	<path class="st0" d="M18.3,54.5C18.3,54.5,18.2,54.5,18.3,54.5c-0.1,0-0.1,0-0.1,0c-0.1,0-0.1,0-0.1,0s0-0.1,0-0.3
		c-0.2-0.6-0.6-2-0.1-3.3c0.7-1.7,1.8-2.8,2.6-2.5c0.3,0.1,0.6,0.5,0.6,1.1c0.5-0.2,0.9-0.2,1.2,0.1c0.6,0.6,0.2,2.1-1,3.4
		C20.4,54.2,18.9,54.4,18.3,54.5z"/>
	<path class="st0" d="M4.1,34.7c-1.2,0-2.8,0.1-4.1,0.2l0,3.4l3.8-0.5c0.1,0.5,0.3,0.9,0.5,1.3c1.6,2.6,5.8,2.8,9.4,0.5
		c3.3-2.1,4.9-5.5,3.9-8c0.2-0.3,0.4-0.5,0.7-0.7l5-2.8l-2.6-0.9c-0.8-2-2.7-3.5-4.9-3.3c-2.6,0.2-4.5,2.5-4.4,5
		c-0.4,0.1-0.7,0.2-1.1,0.3c-2.5-0.6-7.9-2.4-7.9-2.4s-2,5,2.1,7C4.3,34.1,4.2,34.4,4.1,34.7z M17.2,27.2c0-0.3,0.2-0.6,0.5-0.6
		c0.3,0,0.6,0.2,0.6,0.5c0,0.3-0.2,0.6-0.5,0.6C17.5,27.7,17.3,27.5,17.2,27.2z"/>
</g>
</svg>
