<?xml version="1.0" encoding="utf-8"?>
<!-- Generator: Adobe Illustrator 20.1.0, SVG Export Plug-In . SVG Version: 6.00 Build 0)  -->
<svg version="1.1" id="Ebene_1" xmlns="http://www.w3.org/2000/svg" xmlns:xlink="http://www.w3.org/1999/xlink" x="0px" y="0px"
	 viewBox="0 0 8.6 6.5" style="enable-background:new 0 0 8.6 6.5;" xml:space="preserve">
<style type="text/css">
	.st0{fill:none;stroke:#000000;stroke-width:0.3;stroke-linejoin:round;stroke-miterlimit:10;}
	.st1{fill:none;stroke:#000000;stroke-width:0.3;stroke-linecap:round;stroke-linejoin:round;stroke-miterlimit:10;}
</style>
<path class="st0" d="M0.9,3.4c0,0-0.1,0-0.1,0v1.7c0,0,0,0.6,0.6,0.7l2.9,0.5V1.9L4.1,2.6C3.9,3.2,3.3,3.2,3.3,3.2L0.9,3.4z"/>
<path class="st0" d="M1.5,0.6c0,0-0.6,0-0.8,0.6l-0.5,1c0,0-0.2,0.6,0.4,0.6L3,2.6c0,0,0.6,0,0.8-0.6l0.5-1.8L1.5,0.6z"/>
<path class="st0" d="M7.1,0.6c0,0,0.6,0,0.8,0.6l0.5,1c0,0,0.2,0.6-0.4,0.6L5.6,2.6c0,0-0.6,0-0.8-0.6L4.3,0.2L7.1,0.6z"/>
<path class="st1" d="M7.9,3.4v1.7c0,0,0,0.6-0.6,0.7L4.3,6.3"/>
</svg>
