<?xml version="1.0" encoding="utf-8"?>
<!-- Generator: Adobe Illustrator 20.1.0, SVG Export Plug-In . SVG Version: 6.00 Build 0)  -->
<svg version="1.1" id="Ebene_1" xmlns="http://www.w3.org/2000/svg" xmlns:xlink="http://www.w3.org/1999/xlink" x="0px" y="0px"
	 viewBox="0 0 26 64.6" style="enable-background:new 0 0 26 64.6;" xml:space="preserve">
<style type="text/css">
	.st0{fill:#FFFFFF;}
</style>
<g>
	<polygon class="st0" points="21.5,21.6 21.5,16 19.8,16 19.8,21.6 16,18.7 15.2,19.8 19.8,23.4 19.8,28.8 19.2,29.1 14.5,26.4 
		13.7,20.6 12.4,20.8 13,25.5 8.1,22.7 7.3,24.2 12.1,27 7.8,28.8 8.3,30.1 13.7,27.9 18.3,30.6 18.3,31.3 13.7,34 8.3,31.8 7.8,33 
		12.1,34.9 7.3,37.7 8.1,39.2 13,36.4 12.4,41 13.8,41.2 14.5,35.5 19.2,32.8 19.8,33.1 19.8,38.5 15.2,42.1 16,43.2 19.8,40.3 
		19.8,45.9 21.5,45.9 21.5,40.3 25.3,43.2 26,42.3 26,42.3 26,41.9 26,41.9 21.5,38.5 21.5,33.1 22.1,32.8 26,35 26,35 26,33 26,33 
		23,31.3 23,30.6 26,28.9 26,28.9 26,26.9 26,26.9 22.1,29.1 21.5,28.8 21.5,23.4 26,20 26,20 26,19.6 26,19.6 25.3,18.7 	"/>
	<polygon class="st0" points="16.4,58 16.1,57.4 13.4,58.5 11,57.1 11,56.8 13.4,55.4 16.1,56.5 16.4,55.9 14.2,54.9 16.7,53.5 
		16.2,52.7 13.8,54.2 14.1,51.8 13.4,51.7 13,54.6 10.6,56 10.3,55.8 10.3,53.1 12.6,51.3 12.2,50.7 10.3,52.2 10.3,49.3 9.4,49.3 
		9.4,52.2 7.5,50.7 7,51.3 9.4,53.1 9.4,55.8 9.1,56 6.7,54.6 6.3,51.7 5.6,51.8 5.9,54.2 3.4,52.7 3,53.5 5.5,54.9 3.3,55.9 
		3.5,56.5 6.3,55.4 8.7,56.8 8.7,57.1 6.3,58.5 3.5,57.4 3.3,58 5.5,59 3,60.4 3.4,61.1 5.9,59.7 5.6,62.1 6.3,62.2 6.7,59.3 
		9.1,57.9 9.4,58.1 9.4,60.8 7,62.6 7.5,63.2 9.4,61.7 9.4,64.6 10.3,64.6 10.3,61.7 12.2,63.2 12.6,62.6 10.3,60.8 10.3,58.1 
		10.6,57.9 13,59.2 13.3,62.2 14.1,62.1 13.8,59.7 16.2,61.1 16.7,60.4 14.2,58.9 	"/>
	<path class="st0" d="M3.7,39L26,61.3v-1.4L4.4,38.3c-7.6-7.6-0.3-15,0-15.3v0L26,1.4V0L3.7,22.3C3.6,22.4-4.6,30.7,3.7,39z"/>
</g>
</svg>
