<?xml version="1.0" encoding="utf-8"?>
<!-- Generator: Adobe Illustrator 20.1.0, SVG Export Plug-In . SVG Version: 6.00 Build 0)  -->
<svg version="1.1" id="Ebene_1" xmlns="http://www.w3.org/2000/svg" xmlns:xlink="http://www.w3.org/1999/xlink" x="0px" y="0px"
	 viewBox="0 0 26 64.6" style="enable-background:new 0 0 26 64.6;" xml:space="preserve">
<style type="text/css">
	.st0{fill:#FFFFFF;}
</style>
<g>
	<polygon class="st0" points="4.5,21.6 4.5,16 6.2,16 6.2,21.6 9.9,18.7 10.8,19.8 6.2,23.4 6.2,28.8 6.7,29.1 11.5,26.4 12.2,20.6 
		13.6,20.8 13,25.5 17.8,22.7 18.7,24.2 13.9,27 18.2,28.8 17.7,30.1 12.3,27.9 7.6,30.6 7.6,31.3 12.3,34 17.7,31.8 18.2,33 
		13.8,34.9 18.7,37.7 17.8,39.2 13,36.4 13.6,41 12.2,41.2 11.4,35.5 6.8,32.8 6.2,33.1 6.2,38.5 10.8,42.1 9.9,43.2 6.2,40.3 
		6.2,45.9 4.4,45.9 4.5,40.3 0.7,43.2 0,42.3 0,42.3 0,41.9 0,41.9 4.5,38.5 4.4,33.1 3.8,32.8 0,35 0,35 0,33 0,33 3,31.3 3,30.6 
		0,28.9 0,28.9 0,26.9 0,26.9 3.8,29.1 4.5,28.8 4.5,23.4 0,20 0,20 0,19.6 0,19.6 0.7,18.7 	"/>
	<polygon class="st0" points="9.5,58 9.8,57.4 12.5,58.5 14.9,57.1 14.9,56.8 12.6,55.4 9.8,56.5 9.5,55.9 11.8,54.9 9.3,53.5 
		9.7,52.7 12.2,54.2 11.9,51.8 12.6,51.7 13,54.6 15.4,56 15.7,55.8 15.7,53.1 13.3,51.3 13.8,50.7 15.7,52.2 15.7,49.3 16.6,49.3 
		16.6,52.2 18.5,50.7 18.9,51.3 16.6,53.1 16.6,55.8 16.9,56 19.3,54.6 19.7,51.7 20.3,51.8 20,54.2 22.5,52.7 23,53.5 20.5,54.9 
		22.7,55.9 22.4,56.5 19.7,55.4 17.3,56.8 17.3,57.1 19.7,58.5 22.4,57.4 22.7,58 20.5,59 23,60.4 22.5,61.1 20,59.7 20.3,62.1 
		19.6,62.2 19.3,59.3 16.9,57.9 16.6,58.1 16.6,60.8 18.9,62.6 18.5,63.2 16.6,61.7 16.6,64.6 15.7,64.6 15.7,61.7 13.8,63.2 
		13.3,62.6 15.7,60.8 15.7,58.1 15.4,57.9 13,59.2 12.6,62.2 11.9,62.1 12.2,59.7 9.7,61.1 9.3,60.4 11.8,58.9 	"/>
	<path class="st0" d="M22.3,39L0,61.3l0-1.4l21.5-21.5c7.6-7.6,0.3-15,0-15.3v0L0,1.4L0,0l22.3,22.3C22.4,22.4,30.5,30.7,22.3,39z"
		/>
</g>
</svg>
