<?xml version="1.0" encoding="utf-8"?>
<!-- Generator: Adobe Illustrator 22.1.0, SVG Export Plug-In . SVG Version: 6.00 Build 0)  -->
<svg version="1.1" id="Ebene_1" xmlns="http://www.w3.org/2000/svg" xmlns:xlink="http://www.w3.org/1999/xlink" x="0px" y="0px"
	 viewBox="0 0 8.6 6.7" style="enable-background:new 0 0 8.6 6.7;" xml:space="preserve">
<style type="text/css">
	.st0{fill:none;stroke:#000000;stroke-width:0.3;stroke-linejoin:round;stroke-miterlimit:10;}
	.st1{fill:none;stroke:#000000;stroke-width:0.3;stroke-linecap:round;stroke-linejoin:round;stroke-miterlimit:10;}
</style>
<path class="st0" d="M0.7,3.2c0,0-0.1,0-0.1,0v1.7c0,0,0,0.6,0.6,0.7l2.9,0.5V1.8L4,2.4C3.8,3,3.2,3,3.2,3L0.7,3.2z"/>
<path class="st0" d="M1.3,0.5c0,0-0.6,0-0.8,0.6L0,2c0,0-0.2,0.6,0.4,0.6l2.4-0.2c0,0,0.6,0,0.8-0.6L4.2,0L1.3,0.5z"/>
<path class="st0" d="M7,0.5c0,0,0.6,0,0.8,0.6l0.5,1c0,0,0.2,0.6-0.4,0.6L5.5,2.4c0,0-0.6,0-0.8-0.6L4.2,0L7,0.5z"/>
<path class="st1" d="M7.7,3.2v1.7c0,0,0,0.6-0.6,0.7L4.2,6.2"/>
</svg>
