<?xml version="1.0" encoding="utf-8"?>
<!-- Generator: Adobe Illustrator 20.1.0, SVG Export Plug-In . SVG Version: 6.00 Build 0)  -->
<svg version="1.1" id="Ebene_1" xmlns="http://www.w3.org/2000/svg" xmlns:xlink="http://www.w3.org/1999/xlink" x="0px" y="0px"
	 viewBox="0 0 26 61.3" style="enable-background:new 0 0 26 61.3;" xml:space="preserve">
<style type="text/css">
	.st0{fill:#FFFFFF;}
</style>
<path class="st0" d="M26,0L11.2,14.8c-0.2-0.4-0.4-0.8-0.6-1.3c0.7,0.1,1.4-0.5,1.5-1c0-0.3,0.4-0.9,0.8-1c-1.7-0.4-2.4,0.3-2.7,1.2
	c-0.3-0.5-0.5-0.9-0.8-1.4c0.7,0.1,1.5-0.4,1.6-1c0-0.3,0.4-0.9,0.8-1c-1.8-0.4-2.5,0.4-2.7,1.4c-0.2-0.3-0.3-0.6-0.5-0.9
	C7.9,9.1,7.5,9.3,8,10.2c0,0.1,0.1,0.1,0.1,0.2C7.4,10,6.4,9.9,5.4,11.1c0.4-0.2,1,0.1,1.2,0.3C7,11.9,8,12,8.5,11.3
	c0.2,0.4,0.4,0.8,0.6,1.3c-0.7-0.4-1.6-0.3-2.6,0.8c0.4-0.2,1,0.1,1.2,0.3c0.4,0.4,1.3,0.5,1.8,0c0.2,0.5,0.4,0.9,0.6,1.3
	c-0.7-0.3-1.5-0.1-2.4,0.9c0.4-0.2,1,0.1,1.2,0.3c0.1,0.1,0.3,0.2,0.5,0.3l-5.7,5.7c-0.1,0.1-8.3,8.5,0,16.8l2,2l1.5,10.4
	c0,0,0,1.5,1.5,1.5h8.9l8.4,8.4v-1.4l-7.2-7.2c0.3-0.2,0.6-0.6,0.6-1.2L22,33.8h1.7v-0.5h-8.6c0-0.3,0-0.6,0-0.9
	c0.7,0.4,1.6,0.1,1.8-0.5c0.1-0.3,0.6-0.8,1-0.7c-1.4-0.8-2.3-0.5-2.8,0.2c0-0.5,0.1-1.1,0.1-1.7c0.7,0.4,1.6,0.1,1.8-0.5
	c0.1-0.3,0.6-0.8,1-0.7c-1.4-0.8-2.3-0.5-2.8,0.1c0.1-0.6,0.1-1.2,0.2-1.8c0.7,0.5,1.7,0.2,2-0.4c0.1-0.3,0.6-0.8,1-0.7
	c-1.4-0.9-2.4-0.4-2.9,0.3c0.1-0.6,0.2-1.1,0.3-1.7c0.7,0.6,1.7,0.3,2-0.4c0.1-0.3,0.6-0.8,1-0.7c-1.5-0.9-2.4-0.4-2.9,0.3
	c0-0.1,0-0.2,0.1-0.3c0.2-1-0.2-1.1-0.5-0.3c-0.1,0.3-0.2,0.5-0.2,0.8c-0.4-0.6-1-1-1.9-0.8c-0.1,0-0.1-0.1-0.2-0.1
	c0-0.4-0.1-0.8-0.1-1.1c0,0,0,0,0,0c0.1-0.1,0.2-0.2,0.3-0.3c0.1-0.3,0.6-0.8,1-0.7c-0.6-0.4-1.1-0.5-1.6-0.5
	c-0.1-0.6-0.3-1.1-0.4-1.7c0.8,0.3,1.6-0.4,1.7-1c0-0.3,0.4-0.9,0.8-1c-1.7-0.4-2.5,0.4-2.7,1.2c-0.2-0.6-0.4-1.1-0.6-1.7
	c0.8,0.1,1.5-0.4,1.6-1c0-0.3,0.4-0.9,0.8-1c-0.2-0.1-0.4-0.1-0.6-0.1L26,1.4V0z M14.4,28.7c-0.2-0.2-0.5-0.4-0.9-0.5
	c0-0.4,0-0.8,0-1.2c0.3,0.2,0.7,0.3,1.1,0.2C14.5,27.7,14.4,28.2,14.4,28.7z M14.3,29.9c0,0.5-0.1,1-0.1,1.4
	c-0.2-0.2-0.5-0.4-0.8-0.5c0-0.3,0-0.6,0-1C13.7,30,14,30,14.3,29.9z M13.5,24c0.2,0.5,1,0.8,1.7,0.6c-0.1,0.5-0.2,0.9-0.3,1.4
	c-0.3-0.4-0.8-0.6-1.4-0.6c0-0.5,0-1-0.1-1.5C13.5,23.9,13.5,24,13.5,24z M13.3,32.6c0.3,0.1,0.6,0.1,0.9,0c0,0.2,0,0.5,0,0.7h-1
	C13.3,33,13.3,32.8,13.3,32.6z M10.8,16.6c0.1,0.3,0.2,0.6,0.3,0.9c-0.4-0.1-0.8-0.1-1.2,0L10.8,16.6z M12.9,30.8
	c-0.4,0-0.8,0.2-1.4,0.5c0.4-0.1,0.9,0.4,1,0.7c0.1,0.1,0.2,0.2,0.3,0.3c0,0.3,0,0.6-0.1,0.9h-2c-0.1-1-0.1-2.2-0.1-3.4
	c0.7,0.4,1.6,0.1,1.8-0.5c0-0.1,0.1-0.1,0.1-0.2c0,0.1,0.1,0.1,0.1,0.2c0,0.1,0.1,0.2,0.2,0.3C12.9,30,12.9,30.4,12.9,30.8z
	 M12.8,28.2c-0.1,0-0.2,0-0.3,0.1c-0.9-0.2-1.5,0.1-1.9,0.6c0-0.5,0.1-1.1,0.1-1.7c0.7,0.4,1.6,0.1,1.8-0.5c0-0.1,0.1-0.1,0.1-0.2
	C12.8,27,12.8,27.6,12.8,28.2z M12.6,24.3c0,0.4,0.1,0.8,0.1,1.2c0,0,0,0,0,0c-0.8-0.2-1.4,0.1-1.8,0.6c0.1-0.6,0.1-1.2,0.2-1.8
	C11.5,24.6,12.1,24.6,12.6,24.3z M12.3,22.7c-0.5,0.1-0.9,0.4-1.2,0.7c0.1-0.6,0.2-1.1,0.3-1.7c0.2,0.2,0.5,0.3,0.8,0.3
	C12.3,22.3,12.3,22.5,12.3,22.7z M12,20.6c-0.2,0.1-0.3,0.3-0.4,0.5c0-0.1,0-0.2,0.1-0.3c0.2-1-0.2-1.1-0.5-0.3
	c-0.1,0.3-0.2,0.5-0.2,0.8c-0.5-0.8-1.4-1.3-2.9-0.4c0.4-0.1,0.9,0.4,1,0.7c0.2,0.5,1,0.8,1.7,0.6c-0.1,0.5-0.2,0.9-0.3,1.4
	c-0.5-0.6-1.4-1-2.8-0.2c0.4-0.1,0.9,0.4,1,0.7c0.2,0.5,0.9,0.8,1.5,0.6c-0.1,0.5-0.2,1.1-0.2,1.6c-0.5-0.6-1.4-0.9-2.7-0.1
	c0.4-0.1,0.9,0.4,1,0.7c0.2,0.5,0.9,0.8,1.6,0.6c0,0.5-0.1,1-0.1,1.4c-0.5-0.6-1.4-0.8-2.7,0c0.4-0.1,0.9,0.4,1,0.7
	c0.2,0.5,1,0.8,1.7,0.6c0,1.2,0.2,2.3,0.3,3.3H2.9v0.5h1.7l0.8,5.5l-1-1c-7.6-7.6-0.3-15,0-15.3v0l4.6-4.6c0.3,0,0.7,0.2,0.9,0.4
	c0.3,0.4,1,0.5,1.6,0.2C11.7,19.5,11.8,20,12,20.6z"/>
</svg>
