<?xml version="1.0" encoding="utf-8"?>
<!-- Generator: Adobe Illustrator 20.1.0, SVG Export Plug-In . SVG Version: 6.00 Build 0)  -->
<svg version="1.1" id="Ebene_1" xmlns="http://www.w3.org/2000/svg" xmlns:xlink="http://www.w3.org/1999/xlink" x="0px" y="0px"
	 viewBox="0 0 26 61.3" style="enable-background:new 0 0 26 61.3;" xml:space="preserve">
<style type="text/css">
	.st0{fill:#FFFFFF;}
</style>
<path class="st0" d="M0,1.4l12.5,12.5c-0.2,0-0.4,0-0.6,0.1c0.4,0.1,0.7,0.6,0.8,1c0.1,0.6,0.8,1.2,1.6,1c-0.2,0.6-0.4,1.2-0.6,1.7
	c-0.3-0.9-1-1.6-2.7-1.2c0.4,0.1,0.7,0.6,0.8,1c0.1,0.6,0.9,1.2,1.7,1c-0.2,0.6-0.3,1.2-0.4,1.7c-0.4,0-1,0.1-1.6,0.5
	c0.4-0.1,0.9,0.4,1,0.7c0.1,0.1,0.2,0.2,0.3,0.3c0,0,0,0,0,0c-0.1,0.3-0.1,0.7-0.1,1.1c-0.1,0-0.1,0.1-0.2,0.1
	c-0.9-0.2-1.5,0.2-1.9,0.8c-0.1-0.3-0.1-0.5-0.2-0.8c-0.3-0.8-0.7-0.7-0.5,0.3c0,0.1,0,0.2,0.1,0.3c-0.5-0.7-1.4-1.2-2.9-0.3
	c0.4-0.1,0.9,0.4,1,0.7c0.3,0.6,1.3,0.9,2,0.4c0.1,0.6,0.2,1.2,0.3,1.7c-0.5-0.7-1.4-1.1-2.9-0.3c0.4-0.1,0.9,0.4,1,0.7
	c0.3,0.6,1.3,0.9,2,0.4c0.1,0.6,0.1,1.2,0.2,1.8c-0.5-0.6-1.4-1-2.8-0.1c0.4-0.1,0.9,0.4,1,0.7c0.3,0.6,1.2,0.9,1.8,0.5
	c0,0.6,0.1,1.1,0.1,1.7c-0.5-0.7-1.4-1-2.8-0.2c0.4-0.1,0.9,0.4,1,0.7c0.3,0.6,1.1,0.9,1.8,0.5c0,0.3,0,0.6,0,0.9H2.2v0.5h1.7
	l2.6,17.7c0,0.7,0.3,1,0.6,1.2L0,59.8l0,1.4l8.4-8.4h8.9c1.5,0,1.5-1.5,1.5-1.5L20.3,41l2-2c8.3-8.3,0.1-16.7,0-16.8l-5.7-5.7
	c0.2-0.1,0.3-0.2,0.5-0.3c0.2-0.3,0.8-0.5,1.2-0.3c-0.9-1-1.7-1.1-2.4-0.9c0.2-0.4,0.4-0.9,0.6-1.3c0.5,0.5,1.4,0.5,1.8,0
	c0.2-0.3,0.8-0.5,1.2-0.3c-1-1.1-1.9-1.1-2.6-0.8c0.2-0.4,0.4-0.8,0.6-1.3c0.5,0.6,1.5,0.6,2,0.1c0.2-0.3,0.8-0.5,1.2-0.3
	c-1-1.2-2-1.1-2.7-0.7c0-0.1,0.1-0.1,0.1-0.2c0.5-1,0.1-1.1-0.4-0.4c-0.2,0.3-0.4,0.6-0.5,0.9c-0.2-0.9-0.9-1.8-2.7-1.4
	c0.4,0.1,0.7,0.6,0.8,1c0.1,0.6,0.8,1.2,1.6,1c-0.3,0.5-0.6,1-0.8,1.4c-0.3-0.9-1-1.6-2.7-1.2c0.4,0.1,0.7,0.6,0.8,1
	c0.1,0.6,0.8,1.1,1.5,1c-0.2,0.4-0.4,0.8-0.6,1.3L0,0L0,1.4z M11.3,27.2c0.4,0.1,0.8,0,1.1-0.2c0,0.4,0,0.8,0,1.2
	c-0.4,0.1-0.6,0.3-0.9,0.5C11.5,28.2,11.4,27.7,11.3,27.2z M12.5,29.9c0,0.3,0,0.6,0,1c-0.3,0.1-0.6,0.2-0.8,0.5
	c0-0.5,0-0.9-0.1-1.4C12,30,12.2,30,12.5,29.9z M12.6,23.8c0,0.5-0.1,1-0.1,1.5c-0.6,0-1.1,0.2-1.4,0.6c-0.1-0.5-0.2-0.9-0.3-1.4
	c0.7,0.2,1.4-0.1,1.7-0.6C12.5,24,12.5,23.9,12.6,23.8z M12.7,33.3h-1c0-0.2,0-0.5,0-0.7c0.3,0.1,0.6,0.1,0.9,0
	C12.7,32.8,12.7,33,12.7,33.3z M16.1,17.5c-0.4-0.2-0.8-0.2-1.2,0c0.1-0.3,0.2-0.6,0.3-0.9L16.1,17.5z M13.1,29.6
	c0.1-0.1,0.1-0.2,0.2-0.3c0-0.1,0.1-0.1,0.1-0.2c0,0.1,0.1,0.1,0.1,0.2c0.3,0.6,1.1,0.9,1.8,0.5c0,1.3,0,2.4-0.1,3.4h-2
	c0-0.3,0-0.6-0.1-0.9c0.1-0.1,0.2-0.2,0.3-0.3c0.1-0.3,0.6-0.8,1-0.7c-0.5-0.3-1-0.4-1.4-0.5C13.1,30.4,13.1,30,13.1,29.6z
	 M13.2,26.4c0.1,0.1,0.1,0.2,0.1,0.2c0.3,0.6,1.2,0.9,1.8,0.5c0,0.6,0.1,1.1,0.1,1.7c-0.4-0.5-1-0.8-1.9-0.6c-0.1,0-0.2-0.1-0.3-0.1
	C13.1,27.6,13.2,27,13.2,26.4z M14.9,24.3c0.1,0.6,0.1,1.2,0.2,1.8c-0.4-0.5-1-0.8-1.8-0.6c0,0,0,0,0,0c0-0.4,0.1-0.8,0.1-1.2
	C13.8,24.6,14.5,24.6,14.9,24.3z M13.7,22c0.3,0,0.6-0.1,0.8-0.3c0.1,0.6,0.2,1.2,0.3,1.7c-0.3-0.4-0.7-0.7-1.2-0.7
	C13.7,22.5,13.7,22.3,13.7,22z M14.5,18.9c0.5,0.3,1.2,0.2,1.6-0.2c0.2-0.2,0.5-0.4,0.9-0.4l4.6,4.6v0c0.3,0.3,7.6,7.8,0,15.3l-1,1
	l0.8-5.5h1.7v-0.5H16c0.2-1,0.3-2.1,0.3-3.3c0.7,0.2,1.4-0.1,1.7-0.6c0.1-0.3,0.6-0.8,1-0.7c-1.3-0.8-2.1-0.5-2.7,0
	c0-0.5,0-0.9-0.1-1.4c0.6,0.2,1.4-0.1,1.6-0.6c0.1-0.3,0.6-0.8,1-0.7c-1.3-0.8-2.2-0.5-2.7,0.1c-0.1-0.5-0.1-1-0.2-1.6
	c0.6,0.2,1.3-0.1,1.5-0.6c0.1-0.3,0.6-0.8,1-0.7c-1.4-0.8-2.3-0.5-2.8,0.2c-0.1-0.5-0.2-0.9-0.3-1.4c0.7,0.2,1.4-0.1,1.7-0.6
	c0.1-0.3,0.6-0.8,1-0.7c-1.5-0.9-2.4-0.4-2.9,0.4c-0.1-0.3-0.1-0.5-0.2-0.8c-0.3-0.8-0.7-0.7-0.5,0.3c0,0.1,0,0.2,0.1,0.3
	c-0.1-0.2-0.2-0.3-0.4-0.5C14.1,20,14.3,19.5,14.5,18.9z"/>
</svg>
