<?xml version="1.0" encoding="utf-8"?>
<!-- Generator: Adobe Illustrator 20.1.0, SVG Export Plug-In . SVG Version: 6.00 Build 0)  -->
<svg version="1.1" id="Ebene_1" xmlns="http://www.w3.org/2000/svg" xmlns:xlink="http://www.w3.org/1999/xlink" x="0px" y="0px"
	 viewBox="0 0 26 61.3" style="enable-background:new 0 0 26 61.3;" xml:space="preserve">
<style type="text/css">
	.st0{fill:#FFFFFF;}
</style>
<g>
	<path class="st0" d="M7.6,55.3c-0.3,1.2,0.5,2.5,1.9,2.9c1.4,0.4,2.8-0.3,3.2-1.5c0.3-1.2-1.2-5.4-1.2-5.4S8,54,7.6,55.3z"/>
	<path class="st0" d="M11.7,23.7c-1.1,3.9,1.6,8.1,6.1,9.4c3.1,0.9,6.1,0.2,8.1-1.6V16.5c-0.9-3-1.8-5.4-1.8-5.4
		S12.8,19.8,11.7,23.7z"/>
	<path class="st0" d="M3.7,22.3c-0.1,0.1-8.1,8.3-0.3,16.5c-0.1,0.2-0.2,0.4-0.2,0.5c-0.6,2.1,0.9,4.4,3.4,5.2
		c0.9,0.3,1.8,0.3,2.6,0.1L26,61.3v-1.4L10.2,44.1c0.9-0.5,1.6-1.3,1.9-2.3c0.6-2.1-2.1-9.6-2.1-9.6s-4.2,3.2-6,5.6
		C-2.9,30.5,4.1,23.3,4.4,23v0L26,1.4V0L3.7,22.3z"/>
</g>
</svg>
