<?xml version="1.0" encoding="utf-8"?>
<!-- Generator: Adobe Illustrator 20.1.0, SVG Export Plug-In . SVG Version: 6.00 Build 0)  -->
<svg version="1.1" id="Ebene_1" xmlns="http://www.w3.org/2000/svg" xmlns:xlink="http://www.w3.org/1999/xlink" x="0px" y="0px"
	 viewBox="0 0 9.2 7.3" style="enable-background:new 0 0 9.2 7.3;" xml:space="preserve">
<path d="M5,3.7c0.1-0.1,0.1-0.1,0.1-0.2c0-0.1,0-0.1-0.1-0.2c0,0-0.1-0.1-0.2-0.1c-0.1,0-0.1,0-0.2,0.1c0,0.1-0.1,0.1-0.1,0.2
	c0,0.1,0,0.1,0.1,0.2c0,0,0.1,0.1,0.2,0.1C4.9,3.8,5,3.8,5,3.7 M5.3,3.6c0,0.1,0,0.3-0.1,0.4C5.1,4,5,4.1,4.9,4.1
	c-0.1,0-0.2,0-0.3-0.1C4.5,3.8,4.4,3.7,4.4,3.6s0-0.3,0.1-0.4c0.1-0.1,0.2-0.1,0.3-0.1c0.1,0,0.2,0,0.3,0.1C5.3,3.3,5.3,3.4,5.3,3.6
	 M2.4,1.5c0,0.3-0.1,0.5-0.3,0.7C2,2.4,1.7,2.5,1.5,2.5C1.2,2.5,1,2.4,0.9,2.2C0.7,2,0.6,1.8,0.6,1.5c0-0.3,0.1-0.5,0.3-0.6
	C1,0.7,1.3,0.6,1.5,0.6c0.2,0,0.4,0.1,0.6,0.3C2.3,1.1,2.4,1.3,2.4,1.5 M2.5,5.8c0,0.3-0.1,0.5-0.3,0.7C2,6.6,1.8,6.7,1.6,6.7
	c-0.3,0-0.5-0.1-0.6-0.3C0.8,6.3,0.7,6.1,0.7,5.8c0-0.3,0.1-0.5,0.3-0.7c0.2-0.2,0.4-0.3,0.6-0.3C1.8,4.9,2,5,2.2,5.1
	C2.4,5.3,2.5,5.5,2.5,5.8 M9.2,1.6C9,1.4,8.8,1.2,8.6,1C8.4,0.9,8.1,0.8,7.8,0.8C7.4,0.8,7,1,6.4,1.2c-0.5,0.2-1.2,0.7-2,1.2
	C4.3,2.4,4.2,2.3,4.1,2.3C4.1,2.2,4,2.2,3.9,2.2c-0.1,0-0.2,0-0.4,0.1c-0.2,0-0.3,0.1-0.4,0.1c-0.1,0-0.1,0-0.2,0
	c-0.1,0-0.1,0-0.2,0C2.8,2.1,2.9,2,3,1.8C3,1.7,3,1.5,3,1.4c0-0.4-0.1-0.7-0.4-1C2.3,0.1,2,0,1.5,0C1.1,0,0.7,0.2,0.4,0.5
	C0.1,0.8,0,1.1,0,1.6c0,0.5,0.1,0.8,0.4,1.1C0.7,3,1.1,3.1,1.6,3.2c0.2,0,0.4,0,0.7,0.1c0.5,0,0.8,0.2,0.8,0.4C3.1,3.9,2.7,4,2,4.1
	c-0.1,0-0.2,0-0.3,0c-0.6,0.1-1,0.2-1.3,0.5C0.2,4.9,0,5.2,0,5.7s0.1,0.9,0.4,1.2c0.3,0.3,0.6,0.4,1.1,0.4c0.4,0,0.8-0.1,1.1-0.4
	C2.9,6.7,3,6.3,3,5.9C3,5.8,3,5.6,3,5.5c0-0.2-0.1-0.3-0.2-0.5C2.8,5,2.9,4.9,3,4.9c0.1,0,0.2,0,0.2,0c0.1,0,0.2,0,0.2,0
	c0.1,0,0.2,0,0.3,0.1l0.5-0.3c0.9,0.7,1.6,1.1,2.1,1.4C7,6.3,7.4,6.5,7.7,6.5c0.3,0,0.5,0,0.8-0.1C8.7,6.2,9,6,9.2,5.8L6,3.6
	L9.2,1.6z"/>
</svg>
