<?xml version="1.0" encoding="utf-8"?>
<!-- Generator: Adobe Illustrator 20.1.0, SVG Export Plug-In . SVG Version: 6.00 Build 0)  -->
<svg version="1.1" id="Ebene_1" xmlns="http://www.w3.org/2000/svg" xmlns:xlink="http://www.w3.org/1999/xlink" x="0px" y="0px"
	 viewBox="0 0 9.2 9.2" style="enable-background:new 0 0 9.2 9.2;" xml:space="preserve">
<g>
	<path d="M0,4.6c0-1.3,0.4-2.4,1.3-3.3S3.3,0,4.6,0S7,0.4,7.9,1.3s1.3,2,1.3,3.3S8.7,7,7.9,7.9s-2,1.3-3.3,1.3S2.2,8.7,1.3,7.9
		S0,5.9,0,4.6z M0.9,4.6c0,1,0.4,1.9,1.1,2.6s1.6,1.1,2.6,1.1s1.9-0.4,2.6-1.1s1.1-1.6,1.1-2.6S7.9,2.7,7.2,2S5.6,0.9,4.6,0.9
		S2.7,1.3,2,2S0.9,3.6,0.9,4.6z M1.8,4.6c0-0.8,0.3-1.4,0.8-1.9c0.5-0.5,1.2-0.8,2-0.8s1.4,0.3,2,0.8c0.5,0.5,0.8,1.2,0.8,1.9
		S7.1,6,6.5,6.5s-1.2,0.8-2,0.8s-1.4-0.3-2-0.8S1.8,5.4,1.8,4.6z M2.8,4.6c0,0.5,0.2,0.9,0.5,1.3c0.4,0.4,0.8,0.5,1.3,0.5
		s0.9-0.2,1.3-0.5c0.4-0.4,0.5-0.8,0.5-1.3S6.3,3.7,5.9,3.3C5.5,2.9,5.1,2.8,4.6,2.8S3.7,2.9,3.3,3.3C2.9,3.7,2.8,4.1,2.8,4.6z
		 M3.7,4.6c0-0.2,0.1-0.5,0.3-0.6c0.2-0.2,0.4-0.3,0.6-0.3S5.1,3.8,5.2,4c0.2,0.2,0.3,0.4,0.3,0.6S5.4,5.1,5.2,5.2
		C5.1,5.4,4.9,5.5,4.6,5.5S4.1,5.4,3.9,5.2C3.8,5.1,3.7,4.8,3.7,4.6z"/>
</g>
</svg>
