<?xml version="1.0" encoding="utf-8"?>
<!-- Generator: Adobe Illustrator 20.1.0, SVG Export Plug-In . SVG Version: 6.00 Build 0)  -->
<svg version="1.1" id="Ebene_1" xmlns="http://www.w3.org/2000/svg" xmlns:xlink="http://www.w3.org/1999/xlink" x="0px" y="0px"
	 viewBox="0 0 26 61.3" style="enable-background:new 0 0 26 61.3;" xml:space="preserve">
<style type="text/css">
	.st0{fill:#FFFFFF;}
</style>
<g>
	<path class="st0" d="M25.4,11.6L25.4,11.6c0.1-0.2-0.6-1.3-1.8-1.9c0,0,0,0,0,0c-0.1,0-0.1-0.1-0.2-0.1c-0.1,0-0.2-0.1-0.2-0.1
		c-0.1,0-0.2,0-0.2-0.1c-0.1,0-0.1,0-0.2,0c0,0,0,0,0,0c-1.3-0.2-2.6,0.3-2.6,0.5l0,0L25.4,11.6z"/>
	<g>
		<path class="st0" d="M3.7,39l1.5,1.5c-1,3-2.3,7.7-2.2,9.8c0.2,3.2,1.3,8.8,3.9,10.6c3.2,0,7.3-4.2,9.1-6.5c0.3-0.4,0.7-1.1,1.1-2
			l8.8,8.8v-1.4l-8.4-8.4c1.6-3.7,3.1-8.9,3.1-8.9s0.8-2.4-1.7-3.2l-2.7-0.8c1.1-3.4,2.3-7.3,2.3-7.3l0,0L23,17.5l2.4-5.9
			c0-0.1-0.6-1.3-1.9-1.9c0,0,0,0,0,0c-0.1,0-0.1-0.1-0.2-0.1c-0.1,0-0.2-0.1-0.2-0.1c-0.1,0-0.2,0-0.2-0.1c-0.1,0-0.1,0-0.2,0
			c0,0,0,0,0,0c-1.3-0.2-2.6,0.3-2.6,0.5l-1.4,6.2l-4.5,14.2c-0.4,1.2-1.3,4.1-2.1,6.8l-2.7-0.8c0,0-2.4-0.8-3.2,1.7
			c0,0-0.2,0.6-0.5,1.5l-1.2-1.2c-7.6-7.6-0.3-15,0-15.3v0L26,1.4V0L3.7,22.3C3.6,22.4-4.6,30.7,3.7,39z"/>
	</g>
</g>
</svg>
