<?xml version="1.0" encoding="utf-8"?>
<!-- Generator: Adobe Illustrator 20.1.0, SVG Export Plug-In . SVG Version: 6.00 Build 0)  -->
<svg version="1.1" id="Ebene_1" xmlns="http://www.w3.org/2000/svg" xmlns:xlink="http://www.w3.org/1999/xlink" x="0px" y="0px"
	 viewBox="0 0 28.3 89" style="enable-background:new 0 0 28.3 89;" xml:space="preserve">
<style type="text/css">
	.st0{fill:#FFFFFF;}
</style>
<g>
	<path class="st0" d="M27.8,66.8c-0.2,0.5-2,2.7-2.4,3c-0.8,0.2-1.7,0.4-2.5,0.6c-1.2,0.4-2.8,0.8-3.9-0.1c-0.1-0.4,0-0.8,0-1.3
		c0.7,0.1,1.4,0.6,2.3,0.4c1-0.2,2.4-0.4,3.1-0.8c2.7-1.7,3.9-5.3,2.7-8.7l1.1,1.1v-1.4L6.9,38.2c-7.6-7.6-0.3-15,0-15.3h0L28.3,1.4
		V0L6.2,22.1c-0.1,0.1-2.1,2.1-3.1,5.2c-1,2.9-1.2,7.2,3.1,11.5L6.3,39c-0.3,0.1-0.6,0.3-0.9,0.5c-0.6,0.3-1.1,0.5-1.5,1v0.2
		c0.6,0.7,1.3,1.3,1.8,2.1c-0.8-0.4-1.6-1.3-2.7-1.3c-0.5,0.7-1.7,4.1-1.7,5.3c0.1,0.5,0.2,0.9,0.2,1.4c0.3,1.1,0.7,2.1,1,3.2
		c0.4,0.5,0.8,0.9,1.3,1.4c0.4,0.4,0.7,1,1.2,1.3c1,0.3,1.9,0.5,2.9,0.8C8.5,55,9,55.2,9.5,55.3c0.4,0.1,3.3-0.8,3.3-0.9
		c0.1-0.3,0-0.8-0.1-1.1c0.3,0.3,0.4,0.7,0.8,0.8c0.8,0.3,1.6-1,2-1.4c0.5-0.5,1-1,1.6-1.5c0.1-0.3,0.1-0.7,0.2-1
		c0-0.1,0.1-0.2,0.1-0.3l3.2,3.2c-0.6,0.1-1.3,0.2-2.1,0.4c-0.7,0.2-1.5,0.2-2.1,0.5c-1.5,0.9-2.7,2.5-3.9,3.8
		c0,0.3,0.1,0.4,0.2,0.5c-0.8,0.3-0.7,2.2-1,3.1c-0.6,2.4,0.2,3.3,0.8,5.1c0.1,0.4,0.1,0.7,0.2,1.1c0.6,0.5,1.2,1.1,1.8,1.6
		c0.5,0.5,1.4,1.8,2.3,1.5c0.4-0.2,0.5-0.7,0.8-1c-0.1,0.3-0.3,0.9-0.2,1.2c0.1,0.2,3.3,1.2,3.8,1.1c0.5-0.2,1.1-0.3,1.6-0.5
		c1.1-0.3,2.2-0.6,3.3-0.8c0.6-0.3,0.9-1,1.3-1.5c0.3-0.3,0.6-0.7,0.9-1v-3.9C28.2,65.4,28.1,66.2,27.8,66.8z M26.1,64.4
		c-1,2.5-3.5,4.3-6.8,3.2c0-0.2,0.1-0.3,0.1-0.5c3.3,0.5,7-1.3,6.3-5.1c-0.2-0.9-0.9-1.9-0.9-2.5c0.2-0.1,0.4-0.2,0.5-0.3
		c0.8,0.8,1.1,2.1,1.1,3.8C26.3,63.5,26.2,64,26.1,64.4z M24.1,58.2c-0.1,0.1-0.2,0.2-0.4,0.4c-3.7-1.6-4.8-0.8-7.1,1.8
		c-0.2-0.1-0.3-0.2-0.5-0.4c0.8-2.1,3.3-3.2,6-2.7C22.9,57.4,23.8,57.7,24.1,58.2z M25.4,58.1C25.4,58.1,25.4,58.1,25.4,58.1
		L25.4,58.1C25.4,58.1,25.4,58.1,25.4,58.1z M9.3,41.9l0.6,0.6c-0.7,0-1.5,0.3-2.5,0.7C7.2,43.1,7.1,43,7,42.9
		c0.2-0.5,1-0.7,1.7-0.8C8.8,42,9.1,41.9,9.3,41.9z M5.7,40.8c0.2-0.5,1-0.7,1.6-0.9l0.8,0.8c-0.1,0-0.2,0-0.2,0.1
		c-0.5,0.3-1.1,0.6-1.6,0.9C6.1,41.4,5.9,41.1,5.7,40.8z M5.8,43.8c0.2,0.1,0.3,0.2,0.5,0.3c0,0.6-0.7,1.4-0.8,2.2
		c-0.6,3.4,2.7,5,5.6,4.5c0,0.1,0.1,0.3,0.1,0.4c-2.9,1-5.1-0.6-6-2.8c-0.1-0.4-0.2-0.8-0.3-1.3C4.8,45.7,5,44.4,5.8,43.8z
		 M11.4,53.6C10.5,54.4,9,54.1,8,53.7c-0.7-0.2-1.5-0.4-2.2-0.6c-0.4-0.2-1.9-2.2-2.1-2.6c-0.5-1.2-0.4-2.9-1-4
		C3,45.2,3.4,44,3.8,42.7h0c0.3,0.1,0.6,0.3,0.8,0.4c-1.8,3.3-0.8,7.3,1.9,9c0.7,0.4,1.9,0.6,2.8,0.8c0.8,0.1,1.4-0.3,2.1-0.4
		C11.4,52.9,11.5,53.2,11.4,53.6z M11,49.2c-0.2,0.2-0.2,0.1-0.2,0.5c-2.7,0.7-3.4-1-4.2-2.7c0-0.9,0.3-1.4,0.5-2
		c0,0,0.1-0.1,0.1-0.1c0.1,0.1,0.3,0.2,0.4,0.3c-0.2,0.6-0.8,1.1-0.6,2c0.3,1.6,2.7,2.6,4.2,1.5c2.2-1.7,0.1-5.6-2.9-4.1
		c-0.1-0.1-0.2-0.2-0.3-0.3c0,0-0.1-0.1-0.1-0.1c1.2-0.5,2.4-0.5,3.3,0l1.2,1.2c0.7,1.3,0.1,3.5-1,4C11.4,49.3,11.3,49.2,11,49.2z
		 M8.3,46.9c0-0.4,0-0.7,0.2-0.8c0.1-0.1,0.4,0,0.6,0c0.1-0.2,0.1-0.3,0.1-0.6c1.1-0.3,2.4,0.9,1.7,2C10.2,48.6,8.8,47.7,8.3,46.9z
		 M12.2,50.8H12c0-0.1-0.1-0.2-0.1-0.2c0.2-0.4,1-0.7,1.3-1.1c0.7-0.9,0.8-1.8,0.8-3l0.7,0.7C14.5,48.8,13.5,49.8,12.2,50.8z
		 M14.4,52.1l-0.7,0.7c-0.3-0.3-0.6-0.6-0.8-0.9c0.4-0.5,1.3-0.7,1.7-1.3c0.4-0.5,0.8-1.4,1-2.4l1,1C16.1,50.4,15.3,51.6,14.4,52.1z
		 M14,57.9c0.8-0.7,1.6-1.5,2.4-2.2c1.4-1,3.6-1.4,5.4-1.2l1.7,1.7c-0.2-0.1-0.4-0.2-0.6-0.3c-3.7-1.3-6.7,1-7.9,3.2
		c-0.1-0.1-0.3-0.2-0.4-0.4c-0.2-0.2-0.5-0.5-0.7-0.7V57.9z M16.5,69.4c-0.3-0.3-0.5-0.5-0.8-0.8c-1.4-0.6-2.5-3.1-2.9-4.8
		c-0.2-1.3,0.2-2.7,0.4-3.8c0.2,0,0.1,0,0.3-0.1c0.3,0.2,0.6,0.3,1,0.5c-0.9,2.1,0,5.1,1,6.4c0.5,0.6,1.4,0.9,1.9,1.5
		C17.2,68.7,16.8,69,16.5,69.4z M18.4,67.2h-0.2c-1.9-1.6-3.3-3-2.4-6.2c0.2,0.1,0.4,0.1,0.5,0.2c-0.1,1.9-0.2,3.3,0.8,4.5
		c0.3,0.5,1.2,0.7,1.4,1.2C18.5,67,18.4,67.1,18.4,67.2z M17.9,60.7c1.1-1.7,3-2,4.9-1.2l-0.1,0.1c-0.1,0.1-0.2,0.2-0.3,0.4
		c-3.4-1.7-5.7,2.8-3.2,4.7c1.7,1.3,4.4,0.1,4.8-1.6c0.2-1-0.4-1.6-0.6-2.2c0.2-0.1,0.3-0.2,0.5-0.4c0.1,0,0.1,0.1,0.2,0.1
		c0.3,0.7,0.6,1.2,0.6,2.2c-0.8,2-1.6,3.9-4.7,3.1c0-0.4-0.1-0.4-0.3-0.5c-0.4,0-0.5,0.1-0.7,0C17.6,64.8,16.9,62.1,17.9,60.7z
		 M22.5,62.7c-0.5,1-2.1,2-3,0.6c-0.8-1.3,0.6-2.6,1.9-2.3c0,0.3,0,0.4,0.2,0.6c0.3,0,0.6-0.1,0.7,0.1C22.5,62,22.5,62.3,22.5,62.7z
		"/>
	<path class="st0" d="M2.5,75.7c0.5-0.2,1.1-0.3,1.6-0.5c1.1-0.3,2.2-0.6,3.3-0.8c0.6-0.3,0.9-1,1.3-1.5c0.5-0.5,1-1.1,1.4-1.6
		c0.4-1.2,0.7-2.4,1.1-3.6c0.1-0.5,0.2-1.1,0.3-1.6c0-1.4-1.3-5.2-1.9-6c-1.3,0-2.1,1-3,1.5c0.6-0.9,1.4-1.5,2-2.3V59
		c-0.4-0.6-1-0.7-1.6-1.1c-2.2-1.3-4.1-1.6-7-0.9c0,0,0,0,0,0l0,1.2c0,0,0,0,0,0c1.5-0.3,3.1-0.3,4.3,0.1c0.8,0.3,2.1,0.5,2.4,1.2
		c-0.2,0.3-0.4,0.7-0.6,1c-0.6-0.3-1.2-0.7-1.8-1c-1.6-0.5-3-0.4-4.3,0c0,0,0,0,0,0V61c0,0,0,0,0,0c1-0.4,2.2-0.5,3.4-0.3
		c0.7,0.1,1.6,0.4,1.9,1C5.2,61.8,5,62,4.9,62.1c-2.4-1-3.7-1.1-4.9-0.3c0,0,0,0,0,0v1.4c0,0,0,0,0,0c1.1-0.8,2.5-0.8,4-0.2
		l-0.1,0.1c-0.1,0.1-0.2,0.2-0.3,0.4c-1.5-0.8-2.8-0.3-3.6,0.7c0,0,0,0,0,0l0,3.7c0,0,0,0,0,0c0.1,0.1,0.2,0.2,0.3,0.3
		c1.7,1.3,4.4,0.1,4.8-1.6c0.2-1-0.4-1.6-0.6-2.2c0.2-0.1,0.3-0.2,0.5-0.4C5,64,5.1,64,5.1,64c0.3,0.7,0.6,1.2,0.6,2.2
		c-0.8,2-1.6,3.9-4.7,3.1C1,69,0.9,69,0.8,68.8c-0.4,0-0.5,0.1-0.7,0c0,0,0,0-0.1-0.1c0,0,0,0,0,0l0,6.4c0,0,0,0,0,0
		C1,75.5,2.2,75.8,2.5,75.7z M3.7,66.2c-0.5,1-2.1,2-3,0.6c-0.8-1.3,0.6-2.6,1.9-2.3c0,0.3,0,0.4,0.2,0.6c0.3,0,0.6-0.1,0.7,0.1
		C3.7,65.5,3.7,65.8,3.7,66.2z M0.7,70.6c3.3,0.5,7-1.3,6.3-5.1C6.8,64.6,6,63.7,6.1,63c0.2-0.1,0.4-0.2,0.5-0.3
		c0.8,0.8,1.1,2.1,1.1,3.8c-0.1,0.5-0.2,1-0.3,1.4c-1,2.5-3.5,4.3-6.8,3.2C0.6,70.9,0.6,70.8,0.7,70.6z M0.3,73.8
		c-0.1-0.4,0-0.8,0-1.3C1,72.7,1.7,73.1,2.6,73c1-0.2,2.4-0.4,3.1-0.8c3.1-1.9,4.2-6.4,2.1-10.1c0.3-0.1,0.6-0.3,1-0.4h0.1
		c0.4,1.4,0.9,2.8,1.3,4.2C9.5,67,9.6,69,9,70.3c-0.2,0.5-2,2.7-2.4,3c-0.8,0.2-1.7,0.4-2.5,0.6C3,74.3,1.3,74.7,0.3,73.8z"/>
	<path class="st0" d="M22.7,76.7c0.1-0.2,0.1-0.2,0.1-0.5c-1.1-1.1-2.1-2.5-3.5-3.3c-0.5-0.3-1.2-0.3-1.8-0.5
		c-2.7-0.7-4.4-0.4-6.5,0.8c-0.6,0.3-1.1,0.5-1.5,1v0.2c0.6,0.7,1.3,1.3,1.8,2.1c-0.8-0.4-1.6-1.3-2.7-1.3C8.1,75.8,7,79.2,7,80.4
		c0.1,0.5,0.2,0.9,0.2,1.4c0.3,1.1,0.7,2.1,1,3.2c0.4,0.5,0.8,0.9,1.3,1.4c0.4,0.4,0.7,1,1.2,1.3c1,0.3,1.9,0.5,2.9,0.8
		c0.5,0.1,0.9,0.3,1.4,0.4c0.4,0.1,3.3-0.8,3.3-0.9c0.1-0.3,0-0.8-0.1-1.1c0.3,0.3,0.4,0.7,0.8,0.8c0.8,0.3,1.6-1,2-1.4
		c0.5-0.5,1-1,1.6-1.5c0.1-0.3,0.1-0.7,0.2-1c0.6-1.6,1.3-2.4,0.8-4.6C23.3,78.6,23.4,77,22.7,76.7z M11.3,74.5
		c0.3-0.6,1.4-0.8,2.1-1c1.7-0.6,4.4-0.3,5.9,0.8c0.7,0.7,1.4,1.3,2.2,2v0.1c-0.2,0.2-0.4,0.4-0.6,0.6c-0.1,0.1-0.3,0.2-0.4,0.3
		c-1-1.9-3.8-4-7-2.8c-0.5,0.3-1.1,0.6-1.6,0.9C11.6,75.1,11.5,74.8,11.3,74.5z M19.6,78.1c-0.1,0.1-0.3,0.2-0.4,0.3
		c-2-2.3-3-3-6.3-1.6c-0.1-0.1-0.2-0.2-0.3-0.3c0.2-0.5,1-0.7,1.7-0.8C16.7,75.2,18.8,76.3,19.6,78.1z M11.4,77.4
		c0.2,0.1,0.3,0.2,0.5,0.3c0,0.6-0.7,1.4-0.8,2.2c-0.6,3.4,2.7,5,5.6,4.5c0,0.1,0.1,0.3,0.1,0.4c-2.9,1-5.1-0.6-6-2.8
		c-0.1-0.4-0.2-0.8-0.3-1.3C10.4,79.3,10.6,78.1,11.4,77.4z M17,87.3c-0.9,0.8-2.4,0.4-3.4,0.1c-0.7-0.2-1.5-0.4-2.2-0.6
		c-0.4-0.2-1.9-2.2-2.1-2.6c-0.5-1.2-0.4-2.9-1-4c0.4-1.3,0.8-2.5,1.2-3.8h0c0.3,0.1,0.6,0.3,0.8,0.4c-1.8,3.3-0.8,7.3,1.9,9
		c0.7,0.4,1.9,0.6,2.8,0.8c0.8,0.1,1.4-0.3,2.1-0.4C17,86.6,17.1,86.9,17,87.3z M16.5,82.8c-0.2,0.2-0.2,0.1-0.2,0.5
		c-2.7,0.7-3.4-1-4.2-2.7c0-0.9,0.3-1.4,0.5-2c0,0,0.1-0.1,0.1-0.1c0.1,0.1,0.3,0.2,0.4,0.3c-0.2,0.6-0.8,1.1-0.6,2
		c0.3,1.6,2.7,2.6,4.2,1.5c2.2-1.7,0.1-5.6-2.9-4.1c-0.1-0.1-0.2-0.2-0.3-0.3c0,0-0.1-0.1-0.1-0.1c1.7-0.7,3.4-0.5,4.4,1
		c0.8,1.2,0.2,3.6-0.9,4.1C17,83,16.9,82.9,16.5,82.8z M13.9,80.5c0-0.4,0-0.7,0.2-0.8c0.1-0.1,0.4,0,0.6,0c0.1-0.2,0.1-0.3,0.1-0.6
		c1.1-0.3,2.4,0.9,1.7,2C15.8,82.3,14.4,81.4,13.9,80.5z M17.8,84.5h-0.2c0-0.1-0.1-0.2-0.1-0.2c0.2-0.4,1-0.7,1.3-1.1
		c0.8-1.1,0.8-2.3,0.7-4c0.2-0.1,0.3-0.1,0.5-0.2C20.7,81.9,19.5,83.1,17.8,84.5z M22.5,81.5c-0.3,1.5-1.3,3.7-2.5,4.2l-0.7,0.7
		c-0.3-0.3-0.6-0.6-0.8-0.9c0.4-0.5,1.3-0.7,1.7-1.3c0.9-1.2,1.7-3.9,0.9-5.7c0.3-0.1,0.6-0.3,0.8-0.4c0.2,0.1,0.1,0.1,0.3,0
		C22.3,79,22.7,80.4,22.5,81.5z"/>
</g>
</svg>
