<?xml version="1.0" encoding="utf-8"?>
<!-- Generator: Adobe Illustrator 20.1.0, SVG Export Plug-In . SVG Version: 6.00 Build 0)  -->
<svg version="1.1" id="Ebene_1" xmlns="http://www.w3.org/2000/svg" xmlns:xlink="http://www.w3.org/1999/xlink" x="0px" y="0px"
	 viewBox="0 0 26 61.3" style="enable-background:new 0 0 26 61.3;" xml:space="preserve">
<style type="text/css">
	.st0{fill:#FFFFFF;}
</style>
<g>
	<path class="st0" d="M19.8,17.6C12.7,17.6,7,23.3,7,30.4s5.8,12.9,12.9,12.9c2.2,0,4.3-0.6,6.1-1.6v-8.3c-1.1,2.3-3.4,3.8-6.1,3.8
		c-3.8,0-6.9-3.1-6.9-6.9c0-0.7,0.1-1.5,0.3-2.1c0.6,1.3,1.8,2.1,3.3,2.1c2,0,3.6-1.6,3.6-3.6c0-1.3-0.7-2.4-1.7-3.1
		c0.4-0.1,0.8-0.1,1.3-0.1c2.7,0,5,1.6,6.1,3.8v-8.3C24.1,18.1,22.1,17.6,19.8,17.6z"/>
	<path class="st0" d="M0.6,27.5c-1,2.9-1.2,7.2,3.1,11.5L26,61.3l0,0v-1.4l0,0L4.4,38.3c-7.6-7.6-0.3-15,0-15.3h0L26,1.4l0,0V0l0,0
		L3.7,22.3C3.6,22.4,1.6,24.4,0.6,27.5z"/>
</g>
</svg>
