<?xml version="1.0" encoding="utf-8"?>
<!-- Generator: Adobe Illustrator 20.1.0, SVG Export Plug-In . SVG Version: 6.00 Build 0)  -->
<svg version="1.1" id="Ebene_1" xmlns="http://www.w3.org/2000/svg" xmlns:xlink="http://www.w3.org/1999/xlink" x="0px" y="0px"
	 viewBox="0 0 26 62.5" style="enable-background:new 0 0 26 62.5;" xml:space="preserve">
<style type="text/css">
	.st0{fill:#FFFFFF;}
</style>
<g>
	<path class="st0" d="M0.6,27.5c-0.9,2.7-1.2,6.7,2.4,10.8c-0.7,0.2-1.4,0.2-2.1,0.1c2,0.8,3.4,2.8,3.4,5.1c0,2.3-1.4,4.3-3.4,5.1
		c2.2-0.3,4.4,0.7,5.5,2.7c1.2,2,0.9,4.4-0.4,6.1c1.7-1.3,4.1-1.6,6.1-0.4c2,1.2,3,3.4,2.7,5.5c0.8-2,2.8-3.4,5.1-3.4
		c2.3,0,4.3,1.4,5.1,3.4c-0.2-1.4,0.2-2.8,1-3.9V55c-1.8,1-3.9,1.5-6.1,1.5c-7.2,0-13-5.8-13-13s5.8-13,13-13c2.2,0,4.3,0.5,6.1,1.5
		v-3.6c-0.8-1.1-1.2-2.5-1-3.9c-0.8,2-2.8,3.4-5.1,3.4c-2.3,0-4.3-1.4-5.1-3.4c0.3,2.2-0.7,4.4-2.7,5.5c-2,1.2-4.4,0.9-6.1-0.4
		c1.3,1.7,1.6,4.1,0.4,6.1c-0.6,1-1.4,1.7-2.4,2.2C-2.9,30.5,4.1,23.3,4.4,23h0L26,1.4V0L3.7,22.3C3.6,22.4,1.6,24.4,0.6,27.5z"/>
</g>
</svg>
