<?xml version="1.0" encoding="utf-8"?>
<!-- Generator: Adobe Illustrator 21.0.2, SVG Export Plug-In . SVG Version: 6.00 Build 0)  -->
<svg version="1.1" id="Ebene_1" xmlns="http://www.w3.org/2000/svg" xmlns:xlink="http://www.w3.org/1999/xlink" x="0px" y="0px"
	 viewBox="0 0 2.8 5.1" style="enable-background:new 0 0 2.8 5.1;" xml:space="preserve">
<style type="text/css">
	.st0{fill:#AABA58;}
</style>
<path class="st0" d="M2.8,2.5c0-0.1,0-0.2-0.1-0.3L0.6,0.1C0.5,0,0.2,0,0.1,0.1c0,0,0,0,0,0C0,0.2,0,0.5,0.1,0.6L2,2.5L0.1,4.4
	c-0.2,0.1-0.2,0.4,0,0.5c0,0,0,0,0,0c0.1,0.1,0.3,0.1,0.5,0c0,0,0,0,0,0l2.1-2.2C2.8,2.7,2.8,2.6,2.8,2.5z"/>
</svg>
